<svg xmlns="http://www.w3.org/2000/svg" xmlns:xlink="http://www.w3.org/1999/xlink" version="1.1" class="marks" width="410" height="448" viewBox="0 0 410 448"><rect width="410" height="448" fill="white"/><g fill="none" stroke-miterlimit="10" transform="translate(54,24)"><g class="mark-group role-frame root" role="graphics-object" aria-roledescription="group mark container"><g transform="translate(0,0)"><path class="background" aria-hidden="true" d="M0,0h0v0h0Z"/><g><g class="mark-group role-row-header row_header" role="graphics-object" aria-roledescription="group mark container"><g transform="translate(-2,0)"><path class="background" aria-hidden="true" d="M0,0h0v45h0Z"/><g><g class="mark-group role-title"><g transform="translate(-44.123046875,22.5)"><path class="background" aria-hidden="true" d="M0,0h0v0h0Z" pointer-events="none"/><g><g class="mark-text role-title-text" role="graphics-symbol" aria-roledescription="title" aria-label="Title text 'ml-100k'" pointer-events="none"><text text-anchor="start" transform="translate(0,3)" font-family="sans-serif" font-size="11px" fill="#000" opacity="1">ml-100k</text></g></g><path class="foreground" aria-hidden="true" d="" pointer-events="none" display="none"/></g></g></g><path class="foreground" aria-hidden="true" d="" display="none"/></g><g transform="translate(-2,68)"><path class="background" aria-hidden="true" d="M0,0h0v45h0Z"/><g><g class="mark-group role-title"><g transform="translate(-35.55078125,22.5)"><path class="background" aria-hidden="true" d="M0,0h0v0h0Z" pointer-events="none"/><g><g class="mark-text role-title-text" role="graphics-symbol" aria-roledescription="title" aria-label="Title text 'ml-1m'" pointer-events="none"><text text-anchor="start" transform="translate(0,3)" font-family="sans-serif" font-size="11px" fill="#000" opacity="1">ml-1m</text></g></g><path class="foreground" aria-hidden="true" d="" pointer-events="none" display="none"/></g></g></g><path class="foreground" aria-hidden="true" d="" display="none"/></g><g transform="translate(-2,136)"><path class="background" aria-hidden="true" d="M0,0h0v45h0Z"/><g><g class="mark-group role-title"><g transform="translate(-41.66845703125,22.5)"><path class="background" aria-hidden="true" d="M0,0h0v0h0Z" pointer-events="none"/><g><g class="mark-text role-title-text" role="graphics-symbol" aria-roledescription="title" aria-label="Title text 'ml-10m'" pointer-events="none"><text text-anchor="start" transform="translate(0,3)" font-family="sans-serif" font-size="11px" fill="#000" opacity="1">ml-10m</text></g></g><path class="foreground" aria-hidden="true" d="" pointer-events="none" display="none"/></g></g></g><path class="foreground" aria-hidden="true" d="" display="none"/></g><g transform="translate(-2,204)"><path class="background" aria-hidden="true" d="M0,0h0v45h0Z"/><g><g class="mark-group role-title"><g transform="translate(-41.66845703125,22.5)"><path class="background" aria-hidden="true" d="M0,0h0v0h0Z" pointer-events="none"/><g><g class="mark-text role-title-text" role="graphics-symbol" aria-roledescription="title" aria-label="Title text 'ml-20m'" pointer-events="none"><text text-anchor="start" transform="translate(0,3)" font-family="sans-serif" font-size="11px" fill="#000" opacity="1">ml-20m</text></g></g><path class="foreground" aria-hidden="true" d="" pointer-events="none" display="none"/></g></g></g><path class="foreground" aria-hidden="true" d="" display="none"/></g><g transform="translate(-2,272)"><path class="background" aria-hidden="true" d="M0,0h0v45h0Z"/><g><g class="mark-group role-title"><g transform="translate(-41.66845703125,22.5)"><path class="background" aria-hidden="true" d="M0,0h0v0h0Z" pointer-events="none"/><g><g class="mark-text role-title-text" role="graphics-symbol" aria-roledescription="title" aria-label="Title text 'ml-25m'" pointer-events="none"><text text-anchor="start" transform="translate(0,3)" font-family="sans-serif" font-size="11px" fill="#000" opacity="1">ml-25m</text></g></g><path class="foreground" aria-hidden="true" d="" pointer-events="none" display="none"/></g></g></g><path class="foreground" aria-hidden="true" d="" display="none"/></g><g transform="translate(-2,340)"><path class="background" aria-hidden="true" d="M0,0h0v45h0Z"/><g><g class="mark-group role-title"><g transform="translate(-46.5615234375,22.5)"><path class="background" aria-hidden="true" d="M0,0h0v0h0Z" pointer-events="none"/><g><g class="mark-text role-title-text" role="graphics-symbol" aria-roledescription="title" aria-label="Title text 'ml-latest'" pointer-events="none"><text text-anchor="start" transform="translate(0,3)" font-family="sans-serif" font-size="11px" fill="#000" opacity="1">ml-latest</text></g></g><path class="foreground" aria-hidden="true" d="" pointer-events="none" display="none"/></g></g></g><path class="foreground" aria-hidden="true" d="" display="none"/></g></g><g class="mark-group role-column-footer column_footer" role="graphics-object" aria-roledescription="group mark container"><g transform="translate(0,387)"><path class="background" aria-hidden="true" d="M0,0h350v0h-350Z"/><g><g class="mark-group role-axis" role="graphics-symbol" aria-roledescription="axis" aria-label="X-axis titled 'Release Year' for a linear scale with values from 1920 to 2030"><g transform="translate(0.5,0.5)"><path class="background" aria-hidden="true" d="M0,0h0v0h0Z" pointer-events="none"/><g><g class="mark-rule role-axis-tick" pointer-events="none"><line transform="translate(0,0)" x2="0" y2="5" stroke="#888" stroke-width="1" opacity="1"/><line transform="translate(32,0)" x2="0" y2="5" stroke="#888" stroke-width="1" opacity="1"/><line transform="translate(64,0)" x2="0" y2="5" stroke="#888" stroke-width="1" opacity="1"/><line transform="translate(95,0)" x2="0" y2="5" stroke="#888" stroke-width="1" opacity="1"/><line transform="translate(127,0)" x2="0" y2="5" stroke="#888" stroke-width="1" opacity="1"/><line transform="translate(159,0)" x2="0" y2="5" stroke="#888" stroke-width="1" opacity="1"/><line transform="translate(191,0)" x2="0" y2="5" stroke="#888" stroke-width="1" opacity="1"/><line transform="translate(223,0)" x2="0" y2="5" stroke="#888" stroke-width="1" opacity="1"/><line transform="translate(255,0)" x2="0" y2="5" stroke="#888" stroke-width="1" opacity="1"/><line transform="translate(286,0)" x2="0" y2="5" stroke="#888" stroke-width="1" opacity="1"/><line transform="translate(318,0)" x2="0" y2="5" stroke="#888" stroke-width="1" opacity="1"/><line transform="translate(350,0)" x2="0" y2="5" stroke="#888" stroke-width="1" opacity="1"/></g><g class="mark-text role-axis-label" pointer-events="none"><text text-anchor="start" transform="translate(0,15)" font-family="sans-serif" font-size="10px" fill="#000" opacity="1">1920</text><text text-anchor="middle" transform="translate(31.81818181818182,15)" font-family="sans-serif" font-size="10px" fill="#000" opacity="0">1930</text><text text-anchor="middle" transform="translate(63.63636363636364,15)" font-family="sans-serif" font-size="10px" fill="#000" opacity="1">1940</text><text text-anchor="middle" transform="translate(95.45454545454545,15)" font-family="sans-serif" font-size="10px" fill="#000" opacity="0">1950</text><text text-anchor="middle" transform="translate(127.27272727272728,15)" font-family="sans-serif" font-size="10px" fill="#000" opacity="1">1960</text><text text-anchor="middle" transform="translate(159.0909090909091,15)" font-family="sans-serif" font-size="10px" fill="#000" opacity="0">1970</text><text text-anchor="middle" transform="translate(190.9090909090909,15)" font-family="sans-serif" font-size="10px" fill="#000" opacity="1">1980</text><text text-anchor="middle" transform="translate(222.72727272727272,15)" font-family="sans-serif" font-size="10px" fill="#000" opacity="0">1990</text><text text-anchor="middle" transform="translate(254.54545454545456,15)" font-family="sans-serif" font-size="10px" fill="#000" opacity="1">2000</text><text text-anchor="middle" transform="translate(286.3636363636364,15)" font-family="sans-serif" font-size="10px" fill="#000" opacity="0">2010</text><text text-anchor="middle" transform="translate(318.1818181818182,15)" font-family="sans-serif" font-size="10px" fill="#000" opacity="1">2020</text><text text-anchor="end" transform="translate(350,15)" font-family="sans-serif" font-size="10px" fill="#000" opacity="0">2030</text></g><g class="mark-rule role-axis-domain" pointer-events="none"><line transform="translate(0,0)" x2="350" y2="0" stroke="#888" stroke-width="1" opacity="1"/></g><g class="mark-text role-axis-title" pointer-events="none"><text text-anchor="middle" transform="translate(175,30)" font-family="sans-serif" font-size="11px" font-weight="bold" fill="#000" opacity="1">Release Year</text></g></g><path class="foreground" aria-hidden="true" d="" pointer-events="none" display="none"/></g></g></g><path class="foreground" aria-hidden="true" d="" display="none"/></g></g><g class="mark-group role-scope cell" role="graphics-object" aria-roledescription="group mark container"><g transform="translate(0,0)"><path class="background" aria-hidden="true" d="M0.5,0.5h350v45h-350Z" stroke="#ddd"/><g><g class="mark-group role-axis" aria-hidden="true"><g transform="translate(0.5,45.5)"><path class="background" aria-hidden="true" d="M0,0h0v0h0Z" pointer-events="none"/><g><g class="mark-rule role-axis-grid" pointer-events="none"><line transform="translate(0,-45)" x2="0" y2="45" stroke="#ddd" stroke-width="1" opacity="1"/><line transform="translate(32,-45)" x2="0" y2="45" stroke="#ddd" stroke-width="1" opacity="1"/><line transform="translate(64,-45)" x2="0" y2="45" stroke="#ddd" stroke-width="1" opacity="1"/><line transform="translate(95,-45)" x2="0" y2="45" stroke="#ddd" stroke-width="1" opacity="1"/><line transform="translate(127,-45)" x2="0" y2="45" stroke="#ddd" stroke-width="1" opacity="1"/><line transform="translate(159,-45)" x2="0" y2="45" stroke="#ddd" stroke-width="1" opacity="1"/><line transform="translate(191,-45)" x2="0" y2="45" stroke="#ddd" stroke-width="1" opacity="1"/><line transform="translate(223,-45)" x2="0" y2="45" stroke="#ddd" stroke-width="1" opacity="1"/><line transform="translate(255,-45)" x2="0" y2="45" stroke="#ddd" stroke-width="1" opacity="1"/><line transform="translate(286,-45)" x2="0" y2="45" stroke="#ddd" stroke-width="1" opacity="1"/><line transform="translate(318,-45)" x2="0" y2="45" stroke="#ddd" stroke-width="1" opacity="1"/><line transform="translate(350,-45)" x2="0" y2="45" stroke="#ddd" stroke-width="1" opacity="1"/></g></g><path class="foreground" aria-hidden="true" d="" pointer-events="none" display="none"/></g></g><g class="mark-group role-scope child_pathgroup" role="graphics-object" aria-roledescription="group mark container"><g transform="translate(0,0)"><path class="background" aria-hidden="true" d="M0,0h350v45h-350Z"/><g><g class="mark-area role-mark child_marks" role="graphics-object" aria-roledescription="area mark container"><path aria-label="Release Year: 1920; count: 0; Dataset: ml-100k" role="graphics-symbol" aria-roledescription="area mark" d="M0,45C1.061,45,2.121,45,3.182,45C4.242,45,5.303,44.85,6.364,44.85C7.424,44.85,8.485,45,9.545,45C10.606,45,11.667,45,12.727,45C13.788,45,14.848,45,15.909,45C16.97,45,18.03,44.85,19.091,44.85C20.152,44.85,21.212,45,22.273,45C23.333,45,24.394,45,25.455,45C26.515,45,27.576,45,28.636,45C29.697,45,30.758,44.85,31.818,44.85C32.879,44.85,33.939,44.85,35,44.85C36.061,44.85,37.121,44.85,38.182,44.85C39.242,44.85,40.303,44.775,41.364,44.7C42.424,44.625,43.485,44.4,44.545,44.4C45.606,44.4,46.667,44.4,47.727,44.4C48.788,44.4,49.848,44.7,50.909,44.7C51.97,44.7,53.03,44.4,54.091,44.4C55.152,44.4,56.212,44.55,57.273,44.55C58.333,44.55,59.394,44.05,60.455,43.95C61.515,43.85,62.576,43.8,63.636,43.8C64.697,43.8,65.758,44.1,66.818,44.25C67.879,44.4,68.939,44.7,70,44.7C71.061,44.7,72.121,44.475,73.182,44.4C74.242,44.325,75.303,44.25,76.364,44.25C77.424,44.25,78.485,44.4,79.545,44.4C80.606,44.4,81.667,44.25,82.727,44.25C83.788,44.25,84.848,44.25,85.909,44.25C86.97,44.25,88.03,44.55,89.091,44.55C90.152,44.55,91.212,44.5,92.273,44.4C93.333,44.3,94.394,43.95,95.455,43.95C96.515,43.95,97.576,44.15,98.636,44.25C99.697,44.35,100.758,44.475,101.818,44.55C102.879,44.625,103.939,44.7,105,44.7C106.061,44.7,107.121,43.95,108.182,43.95C109.242,43.95,110.303,44.05,111.364,44.1C112.424,44.15,113.485,44.25,114.545,44.25C115.606,44.25,116.667,43.9,117.727,43.8C118.788,43.7,119.848,43.65,120.909,43.65C121.97,43.65,123.03,44.25,124.091,44.25C125.152,44.25,126.212,44.25,127.273,44.25C128.333,44.25,129.394,44.55,130.455,44.55C131.515,44.55,132.576,44.35,133.636,44.25C134.697,44.15,135.758,43.95,136.818,43.95C137.879,43.95,138.939,44.55,140,44.55C141.061,44.55,142.121,44.1,143.182,44.1C144.242,44.1,145.303,44.7,146.364,44.7C147.424,44.7,148.485,44.35,149.545,44.25C150.606,44.15,151.667,44.1,152.727,44.1C153.788,44.1,154.848,44.4,155.909,44.4C156.97,44.4,158.03,44.4,159.091,44.4C160.152,44.4,161.212,43.95,162.273,43.95C163.333,43.95,164.394,44.55,165.455,44.55C166.515,44.55,167.576,44.5,168.636,44.4C169.697,44.3,170.758,43.8,171.818,43.8C172.879,43.8,173.939,44.1,175,44.1C176.061,44.1,177.121,44.1,178.182,44.1C179.242,44.1,180.303,44.4,181.364,44.4C182.424,44.4,183.485,44.4,184.545,44.4C185.606,44.4,186.667,43.65,187.727,43.65C188.788,43.65,189.848,43.8,190.909,43.8C191.97,43.8,193.03,43.05,194.091,43.05C195.152,43.05,196.212,43.05,197.273,43.05C198.333,43.05,199.394,44.1,200.455,44.1C201.515,44.1,202.576,43.8,203.636,43.8C204.697,43.8,205.758,43.95,206.818,43.95C207.879,43.95,208.939,42.75,210,42.75C211.061,42.75,212.121,42.8,213.182,42.9C214.242,43,215.303,43.35,216.364,43.35C217.424,43.35,218.485,43.075,219.545,42.75C220.606,42.425,221.667,41.4,222.727,41.4C223.788,41.4,224.848,41.4,225.909,41.4C226.97,41.4,228.03,40.6,229.091,39C230.152,37.4,231.212,30.425,232.273,25.5C233.333,20.575,234.394,13.575,235.455,9.45C236.515,5.325,237.576,1.05,238.636,0.75C239.697,0.45,240.758,0.3,241.818,0.3C242.879,0.3,243.939,3.625,245,9.75C246.061,15.875,247.121,31.75,248.182,37.05C249.242,42.35,250.303,45,251.364,45C252.424,45,253.485,45,254.545,45C255.606,45,256.667,45,257.727,45C258.788,45,259.848,45,260.909,45C261.97,45,263.03,45,264.091,45C265.152,45,266.212,45,267.273,45C268.333,45,269.394,45,270.455,45C271.515,45,272.576,45,273.636,45C274.697,45,275.758,45,276.818,45C277.879,45,278.939,45,280,45C281.061,45,282.121,45,283.182,45C284.242,45,285.303,45,286.364,45C287.424,45,288.485,45,289.545,45C290.606,45,291.667,45,292.727,45C293.788,45,294.848,45,295.909,45C296.97,45,298.03,45,299.091,45C300.152,45,301.212,45,302.273,45C303.333,45,304.394,45,305.455,45C306.515,45,307.576,45,308.636,45C309.697,45,310.758,45,311.818,45C312.879,45,313.939,45,315,45C316.061,45,317.121,45,318.182,45C319.242,45,320.303,45,321.364,45C322.424,45,323.485,45,324.545,45C325.606,45,326.667,45,327.727,45L327.727,45C326.667,45,325.606,45,324.545,45C323.485,45,322.424,45,321.364,45C320.303,45,319.242,45,318.182,45C317.121,45,316.061,45,315,45C313.939,45,312.879,45,311.818,45C310.758,45,309.697,45,308.636,45C307.576,45,306.515,45,305.455,45C304.394,45,303.333,45,302.273,45C301.212,45,300.152,45,299.091,45C298.03,45,296.97,45,295.909,45C294.848,45,293.788,45,292.727,45C291.667,45,290.606,45,289.545,45C288.485,45,287.424,45,286.364,45C285.303,45,284.242,45,283.182,45C282.121,45,281.061,45,280,45C278.939,45,277.879,45,276.818,45C275.758,45,274.697,45,273.636,45C272.576,45,271.515,45,270.455,45C269.394,45,268.333,45,267.273,45C266.212,45,265.152,45,264.091,45C263.03,45,261.97,45,260.909,45C259.848,45,258.788,45,257.727,45C256.667,45,255.606,45,254.545,45C253.485,45,252.424,45,251.364,45C250.303,45,249.242,45,248.182,45C247.121,45,246.061,45,245,45C243.939,45,242.879,45,241.818,45C240.758,45,239.697,45,238.636,45C237.576,45,236.515,45,235.455,45C234.394,45,233.333,45,232.273,45C231.212,45,230.152,45,229.091,45C228.03,45,226.97,45,225.909,45C224.848,45,223.788,45,222.727,45C221.667,45,220.606,45,219.545,45C218.485,45,217.424,45,216.364,45C215.303,45,214.242,45,213.182,45C212.121,45,211.061,45,210,45C208.939,45,207.879,45,206.818,45C205.758,45,204.697,45,203.636,45C202.576,45,201.515,45,200.455,45C199.394,45,198.333,45,197.273,45C196.212,45,195.152,45,194.091,45C193.03,45,191.97,45,190.909,45C189.848,45,188.788,45,187.727,45C186.667,45,185.606,45,184.545,45C183.485,45,182.424,45,181.364,45C180.303,45,179.242,45,178.182,45C177.121,45,176.061,45,175,45C173.939,45,172.879,45,171.818,45C170.758,45,169.697,45,168.636,45C167.576,45,166.515,45,165.455,45C164.394,45,163.333,45,162.273,45C161.212,45,160.152,45,159.091,45C158.03,45,156.97,45,155.909,45C154.848,45,153.788,45,152.727,45C151.667,45,150.606,45,149.545,45C148.485,45,147.424,45,146.364,45C145.303,45,144.242,45,143.182,45C142.121,45,141.061,45,140,45C138.939,45,137.879,45,136.818,45C135.758,45,134.697,45,133.636,45C132.576,45,131.515,45,130.455,45C129.394,45,128.333,45,127.273,45C126.212,45,125.152,45,124.091,45C123.03,45,121.97,45,120.909,45C119.848,45,118.788,45,117.727,45C116.667,45,115.606,45,114.545,45C113.485,45,112.424,45,111.364,45C110.303,45,109.242,45,108.182,45C107.121,45,106.061,45,105,45C103.939,45,102.879,45,101.818,45C100.758,45,99.697,45,98.636,45C97.576,45,96.515,45,95.455,45C94.394,45,93.333,45,92.273,45C91.212,45,90.152,45,89.091,45C88.03,45,86.97,45,85.909,45C84.848,45,83.788,45,82.727,45C81.667,45,80.606,45,79.545,45C78.485,45,77.424,45,76.364,45C75.303,45,74.242,45,73.182,45C72.121,45,71.061,45,70,45C68.939,45,67.879,45,66.818,45C65.758,45,64.697,45,63.636,45C62.576,45,61.515,45,60.455,45C59.394,45,58.333,45,57.273,45C56.212,45,55.152,45,54.091,45C53.03,45,51.97,45,50.909,45C49.848,45,48.788,45,47.727,45C46.667,45,45.606,45,44.545,45C43.485,45,42.424,45,41.364,45C40.303,45,39.242,45,38.182,45C37.121,45,36.061,45,35,45C33.939,45,32.879,45,31.818,45C30.758,45,29.697,45,28.636,45C27.576,45,26.515,45,25.455,45C24.394,45,23.333,45,22.273,45C21.212,45,20.152,45,19.091,45C18.03,45,16.97,45,15.909,45C14.848,45,13.788,45,12.727,45C11.667,45,10.606,45,9.545,45C8.485,45,7.424,45,6.364,45C5.303,45,4.242,45,3.182,45C2.121,45,1.061,45,0,45Z" fill="#4c78a8" fill-opacity="0.8" stroke="#333" stroke-width="0.5"/></g></g><path class="foreground" aria-hidden="true" d="" display="none"/></g></g></g><path class="foreground" aria-hidden="true" d="" display="none"/></g><g transform="translate(0,68)"><path class="background" aria-hidden="true" d="M0.5,0.5h350v45h-350Z" stroke="#ddd"/><g><g class="mark-group role-axis" aria-hidden="true"><g transform="translate(0.5,45.5)"><path class="background" aria-hidden="true" d="M0,0h0v0h0Z" pointer-events="none"/><g><g class="mark-rule role-axis-grid" pointer-events="none"><line transform="translate(0,-45)" x2="0" y2="45" stroke="#ddd" stroke-width="1" opacity="1"/><line transform="translate(32,-45)" x2="0" y2="45" stroke="#ddd" stroke-width="1" opacity="1"/><line transform="translate(64,-45)" x2="0" y2="45" stroke="#ddd" stroke-width="1" opacity="1"/><line transform="translate(95,-45)" x2="0" y2="45" stroke="#ddd" stroke-width="1" opacity="1"/><line transform="translate(127,-45)" x2="0" y2="45" stroke="#ddd" stroke-width="1" opacity="1"/><line transform="translate(159,-45)" x2="0" y2="45" stroke="#ddd" stroke-width="1" opacity="1"/><line transform="translate(191,-45)" x2="0" y2="45" stroke="#ddd" stroke-width="1" opacity="1"/><line transform="translate(223,-45)" x2="0" y2="45" stroke="#ddd" stroke-width="1" opacity="1"/><line transform="translate(255,-45)" x2="0" y2="45" stroke="#ddd" stroke-width="1" opacity="1"/><line transform="translate(286,-45)" x2="0" y2="45" stroke="#ddd" stroke-width="1" opacity="1"/><line transform="translate(318,-45)" x2="0" y2="45" stroke="#ddd" stroke-width="1" opacity="1"/><line transform="translate(350,-45)" x2="0" y2="45" stroke="#ddd" stroke-width="1" opacity="1"/></g></g><path class="foreground" aria-hidden="true" d="" pointer-events="none" display="none"/></g></g><g class="mark-group role-scope child_pathgroup" role="graphics-object" aria-roledescription="group mark container"><g transform="translate(0,0)"><path class="background" aria-hidden="true" d="M0,0h350v45h-350Z"/><g><g class="mark-area role-mark child_marks" role="graphics-object" aria-roledescription="area mark container"><path aria-label="Release Year: 1920; count: 2; Dataset: ml-1m" role="graphics-symbol" aria-roledescription="area mark" d="M0,44.743C1.061,44.807,2.121,44.871,3.182,44.871C4.242,44.871,5.303,44.786,6.364,44.743C7.424,44.7,8.485,44.614,9.545,44.614C10.606,44.614,11.667,45,12.727,45C13.788,45,14.848,44.4,15.909,44.229C16.97,44.057,18.03,43.971,19.091,43.971C20.152,43.971,21.212,44.121,22.273,44.229C23.333,44.336,24.394,44.614,25.455,44.614C26.515,44.614,27.576,44.614,28.636,44.614C29.697,44.614,30.758,44.1,31.818,44.1C32.879,44.1,33.939,44.1,35,44.1C36.061,44.1,37.121,44.1,38.182,44.1C39.242,44.1,40.303,44.1,41.364,44.1C42.424,44.1,43.485,44.1,44.545,44.1C45.606,44.1,46.667,44.229,47.727,44.229C48.788,44.229,49.848,44.079,50.909,43.971C51.97,43.864,53.03,43.586,54.091,43.586C55.152,43.586,56.212,44.229,57.273,44.229C58.333,44.229,59.394,43.864,60.455,43.586C61.515,43.307,62.576,42.557,63.636,42.557C64.697,42.557,65.758,43.586,66.818,43.586C67.879,43.586,68.939,43.329,70,43.329C71.061,43.329,72.121,43.714,73.182,43.714C74.242,43.714,75.303,43.329,76.364,43.329C77.424,43.329,78.485,43.586,79.545,43.586C80.606,43.586,81.667,43.393,82.727,43.329C83.788,43.264,84.848,43.2,85.909,43.2C86.97,43.2,88.03,43.371,89.091,43.457C90.152,43.543,91.212,43.714,92.273,43.714C93.333,43.714,94.394,43.2,95.455,43.2C96.515,43.2,97.576,43.393,98.636,43.457C99.697,43.521,100.758,43.586,101.818,43.586C102.879,43.586,103.939,43.286,105,43.2C106.061,43.114,107.121,43.157,108.182,43.071C109.242,42.986,110.303,42.557,111.364,42.557C112.424,42.557,113.485,42.557,114.545,42.557C115.606,42.557,116.667,42.493,117.727,42.429C118.788,42.364,119.848,42.171,120.909,42.171C121.97,42.171,123.03,42.171,124.091,42.171C125.152,42.171,126.212,43.071,127.273,43.071C128.333,43.071,129.394,42.643,130.455,42.557C131.515,42.471,132.576,42.514,133.636,42.429C134.697,42.343,135.758,41.786,136.818,41.786C137.879,41.786,138.939,42.943,140,42.943C141.061,42.943,142.121,42.429,143.182,42.429C144.242,42.429,145.303,43.457,146.364,43.457C147.424,43.457,148.485,41.914,149.545,41.914C150.606,41.914,151.667,42.043,152.727,42.171C153.788,42.3,154.848,42.557,155.909,42.686C156.97,42.814,158.03,42.943,159.091,42.943C160.152,42.943,161.212,41.657,162.273,41.657C163.333,41.657,164.394,42.171,165.455,42.171C166.515,42.171,167.576,41.271,168.636,41.271C169.697,41.271,170.758,41.314,171.818,41.4C172.879,41.486,173.939,42.3,175,42.3C176.061,42.3,177.121,42.3,178.182,42.3C179.242,42.3,180.303,42.257,181.364,42.171C182.424,42.086,183.485,41.314,184.545,41.143C185.606,40.971,186.667,41.057,187.727,40.886C188.788,40.714,189.848,39.9,190.909,39.729C191.97,39.557,193.03,39.643,194.091,39.471C195.152,39.3,196.212,38.571,197.273,38.571C198.333,38.571,199.394,40.5,200.455,40.5C201.515,40.5,202.576,37.714,203.636,37.286C204.697,36.857,205.758,37.071,206.818,36.643C207.879,36.214,208.939,31.629,210,31.629C211.061,31.629,212.121,35.7,213.182,35.871C214.242,36.043,215.303,35.957,216.364,36.129C217.424,36.3,218.485,37.286,219.545,37.286C220.606,37.286,221.667,35.1,222.727,35.1C223.788,35.1,224.848,37.286,225.909,37.286C226.97,37.286,228.03,34.136,229.091,31.886C230.152,29.636,231.212,27.107,232.273,23.786C233.333,20.464,234.394,15.75,235.455,11.957C236.515,8.164,237.576,1.286,238.636,1.029C239.697,0.771,240.758,0.643,241.818,0.643C242.879,0.643,243.939,4.5,245,4.5C246.061,4.5,247.121,1.671,248.182,1.671C249.242,1.671,250.303,4.736,251.364,8.614C252.424,12.493,253.485,18.879,254.545,24.943C255.606,31.007,256.667,45,257.727,45C258.788,45,259.848,45,260.909,45C261.97,45,263.03,45,264.091,45C265.152,45,266.212,45,267.273,45C268.333,45,269.394,45,270.455,45C271.515,45,272.576,45,273.636,45C274.697,45,275.758,45,276.818,45C277.879,45,278.939,45,280,45C281.061,45,282.121,45,283.182,45C284.242,45,285.303,45,286.364,45C287.424,45,288.485,45,289.545,45C290.606,45,291.667,45,292.727,45C293.788,45,294.848,45,295.909,45C296.97,45,298.03,45,299.091,45C300.152,45,301.212,45,302.273,45C303.333,45,304.394,45,305.455,45C306.515,45,307.576,45,308.636,45C309.697,45,310.758,45,311.818,45C312.879,45,313.939,45,315,45C316.061,45,317.121,45,318.182,45C319.242,45,320.303,45,321.364,45C322.424,45,323.485,45,324.545,45C325.606,45,326.667,45,327.727,45L327.727,45C326.667,45,325.606,45,324.545,45C323.485,45,322.424,45,321.364,45C320.303,45,319.242,45,318.182,45C317.121,45,316.061,45,315,45C313.939,45,312.879,45,311.818,45C310.758,45,309.697,45,308.636,45C307.576,45,306.515,45,305.455,45C304.394,45,303.333,45,302.273,45C301.212,45,300.152,45,299.091,45C298.03,45,296.97,45,295.909,45C294.848,45,293.788,45,292.727,45C291.667,45,290.606,45,289.545,45C288.485,45,287.424,45,286.364,45C285.303,45,284.242,45,283.182,45C282.121,45,281.061,45,280,45C278.939,45,277.879,45,276.818,45C275.758,45,274.697,45,273.636,45C272.576,45,271.515,45,270.455,45C269.394,45,268.333,45,267.273,45C266.212,45,265.152,45,264.091,45C263.03,45,261.97,45,260.909,45C259.848,45,258.788,45,257.727,45C256.667,45,255.606,45,254.545,45C253.485,45,252.424,45,251.364,45C250.303,45,249.242,45,248.182,45C247.121,45,246.061,45,245,45C243.939,45,242.879,45,241.818,45C240.758,45,239.697,45,238.636,45C237.576,45,236.515,45,235.455,45C234.394,45,233.333,45,232.273,45C231.212,45,230.152,45,229.091,45C228.03,45,226.97,45,225.909,45C224.848,45,223.788,45,222.727,45C221.667,45,220.606,45,219.545,45C218.485,45,217.424,45,216.364,45C215.303,45,214.242,45,213.182,45C212.121,45,211.061,45,210,45C208.939,45,207.879,45,206.818,45C205.758,45,204.697,45,203.636,45C202.576,45,201.515,45,200.455,45C199.394,45,198.333,45,197.273,45C196.212,45,195.152,45,194.091,45C193.03,45,191.97,45,190.909,45C189.848,45,188.788,45,187.727,45C186.667,45,185.606,45,184.545,45C183.485,45,182.424,45,181.364,45C180.303,45,179.242,45,178.182,45C177.121,45,176.061,45,175,45C173.939,45,172.879,45,171.818,45C170.758,45,169.697,45,168.636,45C167.576,45,166.515,45,165.455,45C164.394,45,163.333,45,162.273,45C161.212,45,160.152,45,159.091,45C158.03,45,156.97,45,155.909,45C154.848,45,153.788,45,152.727,45C151.667,45,150.606,45,149.545,45C148.485,45,147.424,45,146.364,45C145.303,45,144.242,45,143.182,45C142.121,45,141.061,45,140,45C138.939,45,137.879,45,136.818,45C135.758,45,134.697,45,133.636,45C132.576,45,131.515,45,130.455,45C129.394,45,128.333,45,127.273,45C126.212,45,125.152,45,124.091,45C123.03,45,121.97,45,120.909,45C119.848,45,118.788,45,117.727,45C116.667,45,115.606,45,114.545,45C113.485,45,112.424,45,111.364,45C110.303,45,109.242,45,108.182,45C107.121,45,106.061,45,105,45C103.939,45,102.879,45,101.818,45C100.758,45,99.697,45,98.636,45C97.576,45,96.515,45,95.455,45C94.394,45,93.333,45,92.273,45C91.212,45,90.152,45,89.091,45C88.03,45,86.97,45,85.909,45C84.848,45,83.788,45,82.727,45C81.667,45,80.606,45,79.545,45C78.485,45,77.424,45,76.364,45C75.303,45,74.242,45,73.182,45C72.121,45,71.061,45,70,45C68.939,45,67.879,45,66.818,45C65.758,45,64.697,45,63.636,45C62.576,45,61.515,45,60.455,45C59.394,45,58.333,45,57.273,45C56.212,45,55.152,45,54.091,45C53.03,45,51.97,45,50.909,45C49.848,45,48.788,45,47.727,45C46.667,45,45.606,45,44.545,45C43.485,45,42.424,45,41.364,45C40.303,45,39.242,45,38.182,45C37.121,45,36.061,45,35,45C33.939,45,32.879,45,31.818,45C30.758,45,29.697,45,28.636,45C27.576,45,26.515,45,25.455,45C24.394,45,23.333,45,22.273,45C21.212,45,20.152,45,19.091,45C18.03,45,16.97,45,15.909,45C14.848,45,13.788,45,12.727,45C11.667,45,10.606,45,9.545,45C8.485,45,7.424,45,6.364,45C5.303,45,4.242,45,3.182,45C2.121,45,1.061,45,0,45Z" fill="#f58518" fill-opacity="0.8" stroke="#333" stroke-width="0.5"/></g></g><path class="foreground" aria-hidden="true" d="" display="none"/></g></g></g><path class="foreground" aria-hidden="true" d="" display="none"/></g><g transform="translate(0,136)"><path class="background" aria-hidden="true" d="M0.5,0.5h350v45h-350Z" stroke="#ddd"/><g><g class="mark-group role-axis" aria-hidden="true"><g transform="translate(0.5,45.5)"><path class="background" aria-hidden="true" d="M0,0h0v0h0Z" pointer-events="none"/><g><g class="mark-rule role-axis-grid" pointer-events="none"><line transform="translate(0,-45)" x2="0" y2="45" stroke="#ddd" stroke-width="1" opacity="1"/><line transform="translate(32,-45)" x2="0" y2="45" stroke="#ddd" stroke-width="1" opacity="1"/><line transform="translate(64,-45)" x2="0" y2="45" stroke="#ddd" stroke-width="1" opacity="1"/><line transform="translate(95,-45)" x2="0" y2="45" stroke="#ddd" stroke-width="1" opacity="1"/><line transform="translate(127,-45)" x2="0" y2="45" stroke="#ddd" stroke-width="1" opacity="1"/><line transform="translate(159,-45)" x2="0" y2="45" stroke="#ddd" stroke-width="1" opacity="1"/><line transform="translate(191,-45)" x2="0" y2="45" stroke="#ddd" stroke-width="1" opacity="1"/><line transform="translate(223,-45)" x2="0" y2="45" stroke="#ddd" stroke-width="1" opacity="1"/><line transform="translate(255,-45)" x2="0" y2="45" stroke="#ddd" stroke-width="1" opacity="1"/><line transform="translate(286,-45)" x2="0" y2="45" stroke="#ddd" stroke-width="1" opacity="1"/><line transform="translate(318,-45)" x2="0" y2="45" stroke="#ddd" stroke-width="1" opacity="1"/><line transform="translate(350,-45)" x2="0" y2="45" stroke="#ddd" stroke-width="1" opacity="1"/></g></g><path class="foreground" aria-hidden="true" d="" pointer-events="none" display="none"/></g></g><g class="mark-group role-scope child_pathgroup" role="graphics-object" aria-roledescription="group mark container"><g transform="translate(0,0)"><path class="background" aria-hidden="true" d="M0,0h350v45h-350Z"/><g><g class="mark-area role-mark child_marks" role="graphics-object" aria-roledescription="area mark container"><path aria-label="Release Year: 1920; count: 5; Dataset: ml-10m" role="graphics-symbol" aria-roledescription="area mark" d="M0,44.5C1.061,44.6,2.121,44.7,3.182,44.7C4.242,44.7,5.303,44.3,6.364,44.3C7.424,44.3,8.485,44.4,9.545,44.4C10.606,44.4,11.667,44.4,12.727,44.4C13.788,44.4,14.848,44,15.909,44C16.97,44,18.03,44,19.091,44C20.152,44,21.212,43.1,22.273,43.1C23.333,43.1,24.394,43.8,25.455,44C26.515,44.2,27.576,44.3,28.636,44.3C29.697,44.3,30.758,43.567,31.818,43.5C32.879,43.433,33.939,43.467,35,43.4C36.061,43.333,37.121,42.867,38.182,42.8C39.242,42.733,40.303,42.7,41.364,42.7C42.424,42.7,43.485,43.2,44.545,43.2C45.606,43.2,46.667,43.2,47.727,43.2C48.788,43.2,49.848,41.8,50.909,41.8C51.97,41.8,53.03,41.867,54.091,42C55.152,42.133,56.212,43.1,57.273,43.1C58.333,43.1,59.394,41.5,60.455,41.3C61.515,41.1,62.576,41,63.636,41C64.697,41,65.758,42.2,66.818,42.2C67.879,42.2,68.939,41.333,70,41.2C71.061,41.067,72.121,41,73.182,41C74.242,41,75.303,41.233,76.364,41.3C77.424,41.367,78.485,41.4,79.545,41.4C80.606,41.4,81.667,41.25,82.727,41.2C83.788,41.15,84.848,41.167,85.909,41.1C86.97,41.033,88.03,40.4,89.091,40.4C90.152,40.4,91.212,41.3,92.273,41.3C93.333,41.3,94.394,40.6,95.455,40.6C96.515,40.6,97.576,40.6,98.636,40.6C99.697,40.6,100.758,41,101.818,41C102.879,41,103.939,39.5,105,39.5C106.061,39.5,107.121,40.7,108.182,40.7C109.242,40.7,110.303,39.3,111.364,39.3C112.424,39.3,113.485,39.7,114.545,39.7C115.606,39.7,116.667,38.8,117.727,38.8C118.788,38.8,119.848,38.8,120.909,38.8C121.97,38.8,123.03,38.9,124.091,38.9C125.152,38.9,126.212,38.4,127.273,38.4C128.333,38.4,129.394,39.3,130.455,39.3C131.515,39.3,132.576,38.1,133.636,38.1C134.697,38.1,135.758,38.7,136.818,38.7C137.879,38.7,138.939,37.8,140,37.8C141.061,37.8,142.121,37.8,143.182,37.8C144.242,37.8,145.303,36.3,146.364,36.3C147.424,36.3,148.485,38.2,149.545,38.2C150.606,38.2,151.667,37.8,152.727,37.8C153.788,37.8,154.848,38.6,155.909,38.6C156.97,38.6,158.03,38.033,159.091,37.9C160.152,37.767,161.212,37.833,162.273,37.7C163.333,37.567,164.394,36.7,165.455,36.7C166.515,36.7,167.576,36.767,168.636,36.9C169.697,37.033,170.758,37.433,171.818,37.5C172.879,37.567,173.939,37.6,175,37.6C176.061,37.6,177.121,37.567,178.182,37.5C179.242,37.433,180.303,36.7,181.364,36.7C182.424,36.7,183.485,36.8,184.545,36.8C185.606,36.8,186.667,36.633,187.727,36.3C188.788,35.967,189.848,30.033,190.909,28.9C191.97,27.767,193.03,27.2,194.091,27.2C195.152,27.2,196.212,27.467,197.273,28C198.333,28.533,199.394,33.9,200.455,33.9C201.515,33.9,202.576,32.083,203.636,31.3C204.697,30.517,205.758,29.683,206.818,29.2C207.879,28.717,208.939,28.933,210,28.4C211.061,27.867,212.121,25.1,213.182,24.5C214.242,23.9,215.303,23.6,216.364,23.6C217.424,23.6,218.485,23.667,219.545,23.8C220.606,23.933,221.667,24.6,222.727,25C223.788,25.4,224.848,26.2,225.909,26.2C226.97,26.2,228.03,24.967,229.091,23.8C230.152,22.633,231.212,20.783,232.273,19.2C233.333,17.617,234.394,16.033,235.455,14.3C236.515,12.567,237.576,10.083,238.636,8.8C239.697,7.517,240.758,6.6,241.818,6.6C242.879,6.6,243.939,8,245,8C246.061,8,247.121,6.6,248.182,6.6C249.242,6.6,250.303,9.3,251.364,9.3C252.424,9.3,253.485,4.5,254.545,4.5C255.606,4.5,256.667,4.7,257.727,4.7C258.788,4.7,259.848,0.9,260.909,0.9C261.97,0.9,263.03,6.8,264.091,8.4C265.152,10,266.212,10.233,267.273,10.8C268.333,11.367,269.394,11.8,270.455,11.8C271.515,11.8,272.576,11.033,273.636,10.5C274.697,9.967,275.758,8.6,276.818,8.6C277.879,8.6,278.939,13.833,280,19.9C281.061,25.967,282.121,45,283.182,45C284.242,45,285.303,45,286.364,45C287.424,45,288.485,45,289.545,45C290.606,45,291.667,45,292.727,45C293.788,45,294.848,45,295.909,45C296.97,45,298.03,45,299.091,45C300.152,45,301.212,45,302.273,45C303.333,45,304.394,45,305.455,45C306.515,45,307.576,45,308.636,45C309.697,45,310.758,45,311.818,45C312.879,45,313.939,45,315,45C316.061,45,317.121,45,318.182,45C319.242,45,320.303,45,321.364,45C322.424,45,323.485,45,324.545,45C325.606,45,326.667,45,327.727,45L327.727,45C326.667,45,325.606,45,324.545,45C323.485,45,322.424,45,321.364,45C320.303,45,319.242,45,318.182,45C317.121,45,316.061,45,315,45C313.939,45,312.879,45,311.818,45C310.758,45,309.697,45,308.636,45C307.576,45,306.515,45,305.455,45C304.394,45,303.333,45,302.273,45C301.212,45,300.152,45,299.091,45C298.03,45,296.97,45,295.909,45C294.848,45,293.788,45,292.727,45C291.667,45,290.606,45,289.545,45C288.485,45,287.424,45,286.364,45C285.303,45,284.242,45,283.182,45C282.121,45,281.061,45,280,45C278.939,45,277.879,45,276.818,45C275.758,45,274.697,45,273.636,45C272.576,45,271.515,45,270.455,45C269.394,45,268.333,45,267.273,45C266.212,45,265.152,45,264.091,45C263.03,45,261.97,45,260.909,45C259.848,45,258.788,45,257.727,45C256.667,45,255.606,45,254.545,45C253.485,45,252.424,45,251.364,45C250.303,45,249.242,45,248.182,45C247.121,45,246.061,45,245,45C243.939,45,242.879,45,241.818,45C240.758,45,239.697,45,238.636,45C237.576,45,236.515,45,235.455,45C234.394,45,233.333,45,232.273,45C231.212,45,230.152,45,229.091,45C228.03,45,226.97,45,225.909,45C224.848,45,223.788,45,222.727,45C221.667,45,220.606,45,219.545,45C218.485,45,217.424,45,216.364,45C215.303,45,214.242,45,213.182,45C212.121,45,211.061,45,210,45C208.939,45,207.879,45,206.818,45C205.758,45,204.697,45,203.636,45C202.576,45,201.515,45,200.455,45C199.394,45,198.333,45,197.273,45C196.212,45,195.152,45,194.091,45C193.03,45,191.97,45,190.909,45C189.848,45,188.788,45,187.727,45C186.667,45,185.606,45,184.545,45C183.485,45,182.424,45,181.364,45C180.303,45,179.242,45,178.182,45C177.121,45,176.061,45,175,45C173.939,45,172.879,45,171.818,45C170.758,45,169.697,45,168.636,45C167.576,45,166.515,45,165.455,45C164.394,45,163.333,45,162.273,45C161.212,45,160.152,45,159.091,45C158.03,45,156.97,45,155.909,45C154.848,45,153.788,45,152.727,45C151.667,45,150.606,45,149.545,45C148.485,45,147.424,45,146.364,45C145.303,45,144.242,45,143.182,45C142.121,45,141.061,45,140,45C138.939,45,137.879,45,136.818,45C135.758,45,134.697,45,133.636,45C132.576,45,131.515,45,130.455,45C129.394,45,128.333,45,127.273,45C126.212,45,125.152,45,124.091,45C123.03,45,121.97,45,120.909,45C119.848,45,118.788,45,117.727,45C116.667,45,115.606,45,114.545,45C113.485,45,112.424,45,111.364,45C110.303,45,109.242,45,108.182,45C107.121,45,106.061,45,105,45C103.939,45,102.879,45,101.818,45C100.758,45,99.697,45,98.636,45C97.576,45,96.515,45,95.455,45C94.394,45,93.333,45,92.273,45C91.212,45,90.152,45,89.091,45C88.03,45,86.97,45,85.909,45C84.848,45,83.788,45,82.727,45C81.667,45,80.606,45,79.545,45C78.485,45,77.424,45,76.364,45C75.303,45,74.242,45,73.182,45C72.121,45,71.061,45,70,45C68.939,45,67.879,45,66.818,45C65.758,45,64.697,45,63.636,45C62.576,45,61.515,45,60.455,45C59.394,45,58.333,45,57.273,45C56.212,45,55.152,45,54.091,45C53.03,45,51.97,45,50.909,45C49.848,45,48.788,45,47.727,45C46.667,45,45.606,45,44.545,45C43.485,45,42.424,45,41.364,45C40.303,45,39.242,45,38.182,45C37.121,45,36.061,45,35,45C33.939,45,32.879,45,31.818,45C30.758,45,29.697,45,28.636,45C27.576,45,26.515,45,25.455,45C24.394,45,23.333,45,22.273,45C21.212,45,20.152,45,19.091,45C18.03,45,16.97,45,15.909,45C14.848,45,13.788,45,12.727,45C11.667,45,10.606,45,9.545,45C8.485,45,7.424,45,6.364,45C5.303,45,4.242,45,3.182,45C2.121,45,1.061,45,0,45Z" fill="#e45756" fill-opacity="0.8" stroke="#333" stroke-width="0.5"/></g></g><path class="foreground" aria-hidden="true" d="" display="none"/></g></g></g><path class="foreground" aria-hidden="true" d="" display="none"/></g><g transform="translate(0,204)"><path class="background" aria-hidden="true" d="M0.5,0.5h350v45h-350Z" stroke="#ddd"/><g><g class="mark-group role-axis" aria-hidden="true"><g transform="translate(0.5,45.5)"><path class="background" aria-hidden="true" d="M0,0h0v0h0Z" pointer-events="none"/><g><g class="mark-rule role-axis-grid" pointer-events="none"><line transform="translate(0,-45)" x2="0" y2="45" stroke="#ddd" stroke-width="1" opacity="1"/><line transform="translate(32,-45)" x2="0" y2="45" stroke="#ddd" stroke-width="1" opacity="1"/><line transform="translate(64,-45)" x2="0" y2="45" stroke="#ddd" stroke-width="1" opacity="1"/><line transform="translate(95,-45)" x2="0" y2="45" stroke="#ddd" stroke-width="1" opacity="1"/><line transform="translate(127,-45)" x2="0" y2="45" stroke="#ddd" stroke-width="1" opacity="1"/><line transform="translate(159,-45)" x2="0" y2="45" stroke="#ddd" stroke-width="1" opacity="1"/><line transform="translate(191,-45)" x2="0" y2="45" stroke="#ddd" stroke-width="1" opacity="1"/><line transform="translate(223,-45)" x2="0" y2="45" stroke="#ddd" stroke-width="1" opacity="1"/><line transform="translate(255,-45)" x2="0" y2="45" stroke="#ddd" stroke-width="1" opacity="1"/><line transform="translate(286,-45)" x2="0" y2="45" stroke="#ddd" stroke-width="1" opacity="1"/><line transform="translate(318,-45)" x2="0" y2="45" stroke="#ddd" stroke-width="1" opacity="1"/><line transform="translate(350,-45)" x2="0" y2="45" stroke="#ddd" stroke-width="1" opacity="1"/></g></g><path class="foreground" aria-hidden="true" d="" pointer-events="none" display="none"/></g></g><g class="mark-group role-scope child_pathgroup" role="graphics-object" aria-roledescription="group mark container"><g transform="translate(0,0)"><path class="background" aria-hidden="true" d="M0,0h350v45h-350Z"/><g><g class="mark-area role-mark child_marks" role="graphics-object" aria-roledescription="area mark container"><path aria-label="Release Year: 1920; count: 19; Dataset: ml-20m" role="graphics-symbol" aria-roledescription="area mark" d="M0,44.288C1.061,44.138,2.121,43.988,3.182,43.988C4.242,43.988,5.303,44.013,6.364,44.063C7.424,44.113,8.485,44.363,9.545,44.363C10.606,44.363,11.667,43.925,12.727,43.875C13.788,43.825,14.848,43.85,15.909,43.8C16.97,43.75,18.03,43.5,19.091,43.5C20.152,43.5,21.212,43.838,22.273,43.838C23.333,43.838,24.394,43.25,25.455,43.2C26.515,43.15,27.576,43.175,28.636,43.125C29.697,43.075,30.758,42.906,31.818,42.788C32.879,42.669,33.939,42.644,35,42.413C36.061,42.181,37.121,41.45,38.182,41.4C39.242,41.35,40.303,41.356,41.364,41.325C42.424,41.294,43.485,41.269,44.545,41.213C45.606,41.156,46.667,40.988,47.727,40.988C48.788,40.988,49.848,40.988,50.909,40.988C51.97,40.988,53.03,41.025,54.091,41.1C55.152,41.175,56.212,41.387,57.273,41.438C58.333,41.488,59.394,41.513,60.455,41.513C61.515,41.513,62.576,40.613,63.636,40.613C64.697,40.613,65.758,40.888,66.818,40.988C67.879,41.088,68.939,41.213,70,41.213C71.061,41.213,72.121,40.613,73.182,40.613C74.242,40.613,75.303,41.213,76.364,41.213C77.424,41.213,78.485,41.063,79.545,41.063C80.606,41.063,81.667,41.55,82.727,41.55C83.788,41.55,84.848,41.35,85.909,41.288C86.97,41.225,88.03,41.25,89.091,41.175C90.152,41.1,91.212,40.275,92.273,40.275C93.333,40.275,94.394,40.425,95.455,40.425C96.515,40.425,97.576,40.369,98.636,40.313C99.697,40.256,100.758,40.156,101.818,40.088C102.879,40.019,103.939,39.9,105,39.9C106.061,39.9,107.121,40.763,108.182,40.763C109.242,40.763,110.303,39.525,111.364,39.525C112.424,39.525,113.485,39.9,114.545,39.9C115.606,39.9,116.667,38.887,117.727,38.887C118.788,38.887,119.848,39.525,120.909,39.525C121.97,39.525,123.03,39.338,124.091,39.338C125.152,39.338,126.212,39.375,127.273,39.45C128.333,39.525,129.394,40.387,130.455,40.387C131.515,40.387,132.576,39.338,133.636,39.338C134.697,39.338,135.758,39.45,136.818,39.45C137.879,39.45,138.939,38.513,140,38.513C141.061,38.513,142.121,38.775,143.182,38.775C144.242,38.775,145.303,37.538,146.364,37.538C147.424,37.538,148.485,38.513,149.545,38.513C150.606,38.513,151.667,37.387,152.727,37.387C153.788,37.387,154.848,38.363,155.909,38.363C156.97,38.363,158.03,37.375,159.091,37.35C160.152,37.325,161.212,37.338,162.273,37.313C163.333,37.288,164.394,36.788,165.455,36.788C166.515,36.788,167.576,36.938,168.636,37.088C169.697,37.238,170.758,37.688,171.818,37.688C172.879,37.688,173.939,37.675,175,37.65C176.061,37.625,177.121,37.538,178.182,37.538C179.242,37.538,180.303,37.55,181.364,37.575C182.424,37.6,183.485,37.8,184.545,37.8C185.606,37.8,186.667,37.688,187.727,37.463C188.788,37.238,189.848,36.013,190.909,35.888C191.97,35.763,193.03,35.7,194.091,35.7C195.152,35.7,196.212,35.913,197.273,36.075C198.333,36.238,199.394,36.675,200.455,36.675C201.515,36.675,202.576,36.425,203.636,36.225C204.697,36.025,205.758,35.675,206.818,35.475C207.879,35.275,208.939,35.325,210,35.025C211.061,34.725,212.121,33.563,213.182,33.263C214.242,32.963,215.303,32.813,216.364,32.813C217.424,32.813,218.485,33.375,219.545,33.375C220.606,33.375,221.667,33.225,222.727,33.225C223.788,33.225,224.848,33.3,225.909,33.3C226.97,33.3,228.03,32.806,229.091,32.438C230.152,32.069,231.212,31.694,232.273,31.088C233.333,30.481,234.394,29.444,235.455,28.8C236.515,28.156,237.576,27.706,238.636,27.225C239.697,26.744,240.758,26.25,241.818,25.912C242.879,25.575,243.939,25.488,245,25.2C246.061,24.913,247.121,24.188,248.182,24.188C249.242,24.188,250.303,24.675,251.364,24.675C252.424,24.675,253.485,22.513,254.545,22.013C255.606,21.513,256.667,21.669,257.727,21.263C258.788,20.856,259.848,19.575,260.909,19.575C261.97,19.575,263.03,20.438,264.091,20.438C265.152,20.438,266.212,19.063,267.273,18.525C268.333,17.988,269.394,18.088,270.455,17.213C271.515,16.337,272.576,13.944,273.636,12.937C274.697,11.931,275.758,11.95,276.818,11.175C277.879,10.4,278.939,9.606,280,8.288C281.061,6.969,282.121,3.263,283.182,3.263C284.242,3.263,285.303,8.925,286.364,8.925C287.424,8.925,288.485,7.05,289.545,6.9C290.606,6.75,291.667,6.675,292.727,6.675C293.788,6.675,294.848,6.812,295.909,7.087C296.97,7.362,298.03,11.681,299.091,17.25C300.152,22.819,301.212,37.5,302.273,40.5C303.333,43.5,304.394,45,305.455,45C306.515,45,307.576,45,308.636,45C309.697,45,310.758,45,311.818,45C312.879,45,313.939,45,315,45C316.061,45,317.121,45,318.182,45C319.242,45,320.303,45,321.364,45C322.424,45,323.485,45,324.545,45C325.606,45,326.667,45,327.727,45L327.727,45C326.667,45,325.606,45,324.545,45C323.485,45,322.424,45,321.364,45C320.303,45,319.242,45,318.182,45C317.121,45,316.061,45,315,45C313.939,45,312.879,45,311.818,45C310.758,45,309.697,45,308.636,45C307.576,45,306.515,45,305.455,45C304.394,45,303.333,45,302.273,45C301.212,45,300.152,45,299.091,45C298.03,45,296.97,45,295.909,45C294.848,45,293.788,45,292.727,45C291.667,45,290.606,45,289.545,45C288.485,45,287.424,45,286.364,45C285.303,45,284.242,45,283.182,45C282.121,45,281.061,45,280,45C278.939,45,277.879,45,276.818,45C275.758,45,274.697,45,273.636,45C272.576,45,271.515,45,270.455,45C269.394,45,268.333,45,267.273,45C266.212,45,265.152,45,264.091,45C263.03,45,261.97,45,260.909,45C259.848,45,258.788,45,257.727,45C256.667,45,255.606,45,254.545,45C253.485,45,252.424,45,251.364,45C250.303,45,249.242,45,248.182,45C247.121,45,246.061,45,245,45C243.939,45,242.879,45,241.818,45C240.758,45,239.697,45,238.636,45C237.576,45,236.515,45,235.455,45C234.394,45,233.333,45,232.273,45C231.212,45,230.152,45,229.091,45C228.03,45,226.97,45,225.909,45C224.848,45,223.788,45,222.727,45C221.667,45,220.606,45,219.545,45C218.485,45,217.424,45,216.364,45C215.303,45,214.242,45,213.182,45C212.121,45,211.061,45,210,45C208.939,45,207.879,45,206.818,45C205.758,45,204.697,45,203.636,45C202.576,45,201.515,45,200.455,45C199.394,45,198.333,45,197.273,45C196.212,45,195.152,45,194.091,45C193.03,45,191.97,45,190.909,45C189.848,45,188.788,45,187.727,45C186.667,45,185.606,45,184.545,45C183.485,45,182.424,45,181.364,45C180.303,45,179.242,45,178.182,45C177.121,45,176.061,45,175,45C173.939,45,172.879,45,171.818,45C170.758,45,169.697,45,168.636,45C167.576,45,166.515,45,165.455,45C164.394,45,163.333,45,162.273,45C161.212,45,160.152,45,159.091,45C158.03,45,156.97,45,155.909,45C154.848,45,153.788,45,152.727,45C151.667,45,150.606,45,149.545,45C148.485,45,147.424,45,146.364,45C145.303,45,144.242,45,143.182,45C142.121,45,141.061,45,140,45C138.939,45,137.879,45,136.818,45C135.758,45,134.697,45,133.636,45C132.576,45,131.515,45,130.455,45C129.394,45,128.333,45,127.273,45C126.212,45,125.152,45,124.091,45C123.03,45,121.97,45,120.909,45C119.848,45,118.788,45,117.727,45C116.667,45,115.606,45,114.545,45C113.485,45,112.424,45,111.364,45C110.303,45,109.242,45,108.182,45C107.121,45,106.061,45,105,45C103.939,45,102.879,45,101.818,45C100.758,45,99.697,45,98.636,45C97.576,45,96.515,45,95.455,45C94.394,45,93.333,45,92.273,45C91.212,45,90.152,45,89.091,45C88.03,45,86.97,45,85.909,45C84.848,45,83.788,45,82.727,45C81.667,45,80.606,45,79.545,45C78.485,45,77.424,45,76.364,45C75.303,45,74.242,45,73.182,45C72.121,45,71.061,45,70,45C68.939,45,67.879,45,66.818,45C65.758,45,64.697,45,63.636,45C62.576,45,61.515,45,60.455,45C59.394,45,58.333,45,57.273,45C56.212,45,55.152,45,54.091,45C53.03,45,51.97,45,50.909,45C49.848,45,48.788,45,47.727,45C46.667,45,45.606,45,44.545,45C43.485,45,42.424,45,41.364,45C40.303,45,39.242,45,38.182,45C37.121,45,36.061,45,35,45C33.939,45,32.879,45,31.818,45C30.758,45,29.697,45,28.636,45C27.576,45,26.515,45,25.455,45C24.394,45,23.333,45,22.273,45C21.212,45,20.152,45,19.091,45C18.03,45,16.97,45,15.909,45C14.848,45,13.788,45,12.727,45C11.667,45,10.606,45,9.545,45C8.485,45,7.424,45,6.364,45C5.303,45,4.242,45,3.182,45C2.121,45,1.061,45,0,45Z" fill="#72b7b2" fill-opacity="0.8" stroke="#333" stroke-width="0.5"/></g></g><path class="foreground" aria-hidden="true" d="" display="none"/></g></g></g><path class="foreground" aria-hidden="true" d="" display="none"/></g><g transform="translate(0,272)"><path class="background" aria-hidden="true" d="M0.5,0.5h350v45h-350Z" stroke="#ddd"/><g><g class="mark-group role-axis" aria-hidden="true"><g transform="translate(0.5,45.5)"><path class="background" aria-hidden="true" d="M0,0h0v0h0Z" pointer-events="none"/><g><g class="mark-rule role-axis-grid" pointer-events="none"><line transform="translate(0,-45)" x2="0" y2="45" stroke="#ddd" stroke-width="1" opacity="1"/><line transform="translate(32,-45)" x2="0" y2="45" stroke="#ddd" stroke-width="1" opacity="1"/><line transform="translate(64,-45)" x2="0" y2="45" stroke="#ddd" stroke-width="1" opacity="1"/><line transform="translate(95,-45)" x2="0" y2="45" stroke="#ddd" stroke-width="1" opacity="1"/><line transform="translate(127,-45)" x2="0" y2="45" stroke="#ddd" stroke-width="1" opacity="1"/><line transform="translate(159,-45)" x2="0" y2="45" stroke="#ddd" stroke-width="1" opacity="1"/><line transform="translate(191,-45)" x2="0" y2="45" stroke="#ddd" stroke-width="1" opacity="1"/><line transform="translate(223,-45)" x2="0" y2="45" stroke="#ddd" stroke-width="1" opacity="1"/><line transform="translate(255,-45)" x2="0" y2="45" stroke="#ddd" stroke-width="1" opacity="1"/><line transform="translate(286,-45)" x2="0" y2="45" stroke="#ddd" stroke-width="1" opacity="1"/><line transform="translate(318,-45)" x2="0" y2="45" stroke="#ddd" stroke-width="1" opacity="1"/><line transform="translate(350,-45)" x2="0" y2="45" stroke="#ddd" stroke-width="1" opacity="1"/></g></g><path class="foreground" aria-hidden="true" d="" pointer-events="none" display="none"/></g></g><g class="mark-group role-scope child_pathgroup" role="graphics-object" aria-roledescription="group mark container"><g transform="translate(0,0)"><path class="background" aria-hidden="true" d="M0,0h350v45h-350Z"/><g><g class="mark-area role-mark child_marks" role="graphics-object" aria-roledescription="area mark container"><path aria-label="Release Year: 1920; count: 36; Dataset: ml-25m" role="graphics-symbol" aria-roledescription="area mark" d="M0,44.377C1.061,44.273,2.121,44.169,3.182,44.169C4.242,44.169,5.303,44.181,6.364,44.204C7.424,44.227,8.485,44.481,9.545,44.481C10.606,44.481,11.667,44.337,12.727,44.273C13.788,44.21,14.848,44.169,15.909,44.1C16.97,44.031,18.03,43.858,19.091,43.858C20.152,43.858,21.212,43.927,22.273,43.927C23.333,43.927,24.394,43.826,25.455,43.667C26.515,43.509,27.576,43.113,28.636,42.975C29.697,42.837,30.758,42.906,31.818,42.767C32.879,42.629,33.939,42.254,35,42.006C36.061,41.758,37.121,41.313,38.182,41.279C39.242,41.244,40.303,41.238,41.364,41.227C42.424,41.215,43.485,41.221,44.545,41.21C45.606,41.198,46.667,41.103,47.727,41.071C48.788,41.039,49.848,41.042,50.909,41.019C51.97,40.996,53.03,40.933,54.091,40.933C55.152,40.933,56.212,41.383,57.273,41.383C58.333,41.383,59.394,41.337,60.455,41.296C61.515,41.256,62.576,41.192,63.636,41.14C64.697,41.088,65.758,41.083,66.818,40.985C67.879,40.887,68.939,40.552,70,40.552C71.061,40.552,72.121,41.013,73.182,41.14C74.242,41.267,75.303,41.331,76.364,41.331C77.424,41.331,78.485,41.21,79.545,41.21C80.606,41.21,81.667,41.244,82.727,41.244C83.788,41.244,84.848,41.065,85.909,40.985C86.97,40.904,88.03,40.858,89.091,40.76C90.152,40.662,91.212,40.494,92.273,40.396C93.333,40.298,94.394,40.171,95.455,40.171C96.515,40.171,97.576,40.362,98.636,40.362C99.697,40.362,100.758,40.137,101.818,40.033C102.879,39.929,103.939,39.738,105,39.738C106.061,39.738,107.121,40.067,108.182,40.067C109.242,40.067,110.303,39.548,111.364,39.548C112.424,39.548,113.485,39.912,114.545,39.912C115.606,39.912,116.667,39.202,117.727,39.202C118.788,39.202,119.848,39.594,120.909,39.652C121.97,39.71,123.03,39.681,124.091,39.738C125.152,39.796,126.212,40.344,127.273,40.344C128.333,40.344,129.394,39.998,130.455,39.998C131.515,39.998,132.576,39.998,133.636,39.998C134.697,39.998,135.758,39.738,136.818,39.513C137.879,39.288,138.939,38.648,140,38.648C141.061,38.648,142.121,38.735,143.182,38.735C144.242,38.735,145.303,38.008,146.364,38.008C147.424,38.008,148.485,38.285,149.545,38.285C150.606,38.285,151.667,37.073,152.727,37.073C153.788,37.073,154.848,37.333,155.909,37.333C156.97,37.333,158.03,36.764,159.091,36.502C160.152,36.239,161.212,35.945,162.273,35.758C163.333,35.57,164.394,35.377,165.455,35.377C166.515,35.377,167.576,36.04,168.636,36.087C169.697,36.133,170.758,36.11,171.818,36.156C172.879,36.202,173.939,37.246,175,37.246C176.061,37.246,177.121,36.519,178.182,36.519C179.242,36.519,180.303,36.788,181.364,36.883C182.424,36.978,183.485,37.09,184.545,37.09C185.606,37.09,186.667,36.571,187.727,36.571C188.788,36.571,189.848,36.793,190.909,36.865C191.97,36.938,193.03,36.992,194.091,37.004C195.152,37.015,196.212,37.013,197.273,37.021C198.333,37.03,199.394,37.056,200.455,37.056C201.515,37.056,202.576,36.987,203.636,36.848C204.697,36.71,205.758,36.121,206.818,36.121C207.879,36.121,208.939,36.121,210,36.121C211.061,36.121,212.121,35.034,213.182,34.702C214.242,34.37,215.303,34.131,216.364,34.131C217.424,34.131,218.485,34.24,219.545,34.46C220.606,34.679,221.667,35.527,222.727,35.688C223.788,35.85,224.848,35.931,225.909,35.931C226.97,35.931,228.03,35.348,229.091,35.256C230.152,35.163,231.212,35.21,232.273,35.117C233.333,35.025,234.394,34.223,235.455,33.837C236.515,33.45,237.576,32.798,238.636,32.798C239.697,32.798,240.758,32.833,241.818,32.833C242.879,32.833,243.939,31.419,245,31.292C246.061,31.165,247.121,31.16,248.182,31.102C249.242,31.044,250.303,31.05,251.364,30.946C252.424,30.842,253.485,29.38,254.545,28.921C255.606,28.463,256.667,28.468,257.727,28.194C258.788,27.92,259.848,27.323,260.909,27.277C261.97,27.231,263.03,27.254,264.091,27.208C265.152,27.162,266.212,25.37,267.273,24.715C268.333,24.061,269.394,24.069,270.455,23.279C271.515,22.488,272.576,20.573,273.636,19.973C274.697,19.373,275.758,19.61,276.818,19.073C277.879,18.537,278.939,17.406,280,16.754C281.061,16.102,282.121,15.162,283.182,15.162C284.242,15.162,285.303,15.733,286.364,15.733C287.424,15.733,288.485,14.016,289.545,13.188C290.606,12.361,291.667,11.732,292.727,10.765C293.788,9.799,294.848,8.625,295.909,7.39C296.97,6.156,298.03,4.338,299.091,3.358C300.152,2.377,301.212,1.506,302.273,1.506C303.333,1.506,304.394,1.65,305.455,1.938C306.515,2.227,307.576,2.602,308.636,3.912C309.697,5.221,310.758,5.873,311.818,9.796C312.879,13.719,313.939,21.929,315,27.796C316.061,33.663,317.121,45,318.182,45C319.242,45,320.303,45,321.364,45C322.424,45,323.485,45,324.545,45C325.606,45,326.667,45,327.727,45L327.727,45C326.667,45,325.606,45,324.545,45C323.485,45,322.424,45,321.364,45C320.303,45,319.242,45,318.182,45C317.121,45,316.061,45,315,45C313.939,45,312.879,45,311.818,45C310.758,45,309.697,45,308.636,45C307.576,45,306.515,45,305.455,45C304.394,45,303.333,45,302.273,45C301.212,45,300.152,45,299.091,45C298.03,45,296.97,45,295.909,45C294.848,45,293.788,45,292.727,45C291.667,45,290.606,45,289.545,45C288.485,45,287.424,45,286.364,45C285.303,45,284.242,45,283.182,45C282.121,45,281.061,45,280,45C278.939,45,277.879,45,276.818,45C275.758,45,274.697,45,273.636,45C272.576,45,271.515,45,270.455,45C269.394,45,268.333,45,267.273,45C266.212,45,265.152,45,264.091,45C263.03,45,261.97,45,260.909,45C259.848,45,258.788,45,257.727,45C256.667,45,255.606,45,254.545,45C253.485,45,252.424,45,251.364,45C250.303,45,249.242,45,248.182,45C247.121,45,246.061,45,245,45C243.939,45,242.879,45,241.818,45C240.758,45,239.697,45,238.636,45C237.576,45,236.515,45,235.455,45C234.394,45,233.333,45,232.273,45C231.212,45,230.152,45,229.091,45C228.03,45,226.97,45,225.909,45C224.848,45,223.788,45,222.727,45C221.667,45,220.606,45,219.545,45C218.485,45,217.424,45,216.364,45C215.303,45,214.242,45,213.182,45C212.121,45,211.061,45,210,45C208.939,45,207.879,45,206.818,45C205.758,45,204.697,45,203.636,45C202.576,45,201.515,45,200.455,45C199.394,45,198.333,45,197.273,45C196.212,45,195.152,45,194.091,45C193.03,45,191.97,45,190.909,45C189.848,45,188.788,45,187.727,45C186.667,45,185.606,45,184.545,45C183.485,45,182.424,45,181.364,45C180.303,45,179.242,45,178.182,45C177.121,45,176.061,45,175,45C173.939,45,172.879,45,171.818,45C170.758,45,169.697,45,168.636,45C167.576,45,166.515,45,165.455,45C164.394,45,163.333,45,162.273,45C161.212,45,160.152,45,159.091,45C158.03,45,156.97,45,155.909,45C154.848,45,153.788,45,152.727,45C151.667,45,150.606,45,149.545,45C148.485,45,147.424,45,146.364,45C145.303,45,144.242,45,143.182,45C142.121,45,141.061,45,140,45C138.939,45,137.879,45,136.818,45C135.758,45,134.697,45,133.636,45C132.576,45,131.515,45,130.455,45C129.394,45,128.333,45,127.273,45C126.212,45,125.152,45,124.091,45C123.03,45,121.97,45,120.909,45C119.848,45,118.788,45,117.727,45C116.667,45,115.606,45,114.545,45C113.485,45,112.424,45,111.364,45C110.303,45,109.242,45,108.182,45C107.121,45,106.061,45,105,45C103.939,45,102.879,45,101.818,45C100.758,45,99.697,45,98.636,45C97.576,45,96.515,45,95.455,45C94.394,45,93.333,45,92.273,45C91.212,45,90.152,45,89.091,45C88.03,45,86.97,45,85.909,45C84.848,45,83.788,45,82.727,45C81.667,45,80.606,45,79.545,45C78.485,45,77.424,45,76.364,45C75.303,45,74.242,45,73.182,45C72.121,45,71.061,45,70,45C68.939,45,67.879,45,66.818,45C65.758,45,64.697,45,63.636,45C62.576,45,61.515,45,60.455,45C59.394,45,58.333,45,57.273,45C56.212,45,55.152,45,54.091,45C53.03,45,51.97,45,50.909,45C49.848,45,48.788,45,47.727,45C46.667,45,45.606,45,44.545,45C43.485,45,42.424,45,41.364,45C40.303,45,39.242,45,38.182,45C37.121,45,36.061,45,35,45C33.939,45,32.879,45,31.818,45C30.758,45,29.697,45,28.636,45C27.576,45,26.515,45,25.455,45C24.394,45,23.333,45,22.273,45C21.212,45,20.152,45,19.091,45C18.03,45,16.97,45,15.909,45C14.848,45,13.788,45,12.727,45C11.667,45,10.606,45,9.545,45C8.485,45,7.424,45,6.364,45C5.303,45,4.242,45,3.182,45C2.121,45,1.061,45,0,45Z" fill="#54a24b" fill-opacity="0.8" stroke="#333" stroke-width="0.5"/></g></g><path class="foreground" aria-hidden="true" d="" display="none"/></g></g></g><path class="foreground" aria-hidden="true" d="" display="none"/></g><g transform="translate(0,340)"><path class="background" aria-hidden="true" d="M0.5,0.5h350v45h-350Z" stroke="#ddd"/><g><g class="mark-group role-axis" aria-hidden="true"><g transform="translate(0.5,45.5)"><path class="background" aria-hidden="true" d="M0,0h0v0h0Z" pointer-events="none"/><g><g class="mark-rule role-axis-grid" pointer-events="none"><line transform="translate(0,-45)" x2="0" y2="45" stroke="#ddd" stroke-width="1" opacity="1"/><line transform="translate(32,-45)" x2="0" y2="45" stroke="#ddd" stroke-width="1" opacity="1"/><line transform="translate(64,-45)" x2="0" y2="45" stroke="#ddd" stroke-width="1" opacity="1"/><line transform="translate(95,-45)" x2="0" y2="45" stroke="#ddd" stroke-width="1" opacity="1"/><line transform="translate(127,-45)" x2="0" y2="45" stroke="#ddd" stroke-width="1" opacity="1"/><line transform="translate(159,-45)" x2="0" y2="45" stroke="#ddd" stroke-width="1" opacity="1"/><line transform="translate(191,-45)" x2="0" y2="45" stroke="#ddd" stroke-width="1" opacity="1"/><line transform="translate(223,-45)" x2="0" y2="45" stroke="#ddd" stroke-width="1" opacity="1"/><line transform="translate(255,-45)" x2="0" y2="45" stroke="#ddd" stroke-width="1" opacity="1"/><line transform="translate(286,-45)" x2="0" y2="45" stroke="#ddd" stroke-width="1" opacity="1"/><line transform="translate(318,-45)" x2="0" y2="45" stroke="#ddd" stroke-width="1" opacity="1"/><line transform="translate(350,-45)" x2="0" y2="45" stroke="#ddd" stroke-width="1" opacity="1"/></g></g><path class="foreground" aria-hidden="true" d="" pointer-events="none" display="none"/></g></g><g class="mark-group role-scope child_pathgroup" role="graphics-object" aria-roledescription="group mark container"><g transform="translate(0,0)"><path class="background" aria-hidden="true" d="M0,0h350v45h-350Z"/><g><g class="mark-area role-mark child_marks" role="graphics-object" aria-roledescription="area mark container"><path aria-label="Release Year: 1920; count: 46; Dataset: ml-latest" role="graphics-symbol" aria-roledescription="area mark" d="M0,44.409C1.061,44.344,2.121,44.28,3.182,44.28C4.242,44.28,5.303,44.28,6.364,44.28C7.424,44.28,8.485,44.486,9.545,44.486C10.606,44.486,11.667,44.372,12.727,44.319C13.788,44.265,14.848,44.222,15.909,44.164C16.97,44.106,18.03,43.971,19.091,43.971C20.152,43.971,21.212,43.971,22.273,43.971C23.333,43.971,24.394,43.849,25.455,43.689C26.515,43.528,27.576,43.153,28.636,43.007C29.697,42.861,30.758,42.934,31.818,42.789C32.879,42.643,33.939,42.261,35,42.056C36.061,41.85,37.121,41.563,38.182,41.554C39.242,41.546,40.303,41.541,41.364,41.541C42.424,41.541,43.485,41.709,44.545,41.709C45.606,41.709,46.667,41.447,47.727,41.336C48.788,41.224,49.848,41.04,50.909,41.04C51.97,41.04,53.03,41.156,54.091,41.271C55.152,41.387,56.212,41.734,57.273,41.734C58.333,41.734,59.394,41.7,60.455,41.683C61.515,41.666,62.576,41.666,63.636,41.631C64.697,41.597,65.758,41.55,66.818,41.464C67.879,41.379,68.939,41.117,70,41.117C71.061,41.117,72.121,41.661,73.182,41.696C74.242,41.73,75.303,41.73,76.364,41.747C77.424,41.764,78.485,41.799,79.545,41.799C80.606,41.799,81.667,41.781,82.727,41.747C83.788,41.713,84.848,41.501,85.909,41.4C86.97,41.299,88.03,41.246,89.091,41.143C90.152,41.04,91.212,40.86,92.273,40.783C93.333,40.706,94.394,40.667,95.455,40.667C96.515,40.667,97.576,40.783,98.636,40.783C99.697,40.783,100.758,40.601,101.818,40.526C102.879,40.451,103.939,40.333,105,40.333C106.061,40.333,107.121,40.423,108.182,40.423C109.242,40.423,110.303,40.166,111.364,40.166C112.424,40.166,113.485,40.371,114.545,40.371C115.606,40.371,116.667,39.973,117.727,39.973C118.788,39.973,119.848,40.08,120.909,40.14C121.97,40.2,123.03,40.224,124.091,40.333C125.152,40.442,126.212,40.796,127.273,40.796C128.333,40.796,129.394,40.397,130.455,40.397C131.515,40.397,132.576,40.474,133.636,40.474C134.697,40.474,135.758,40.202,136.818,39.999C137.879,39.795,138.939,39.253,140,39.253C141.061,39.253,142.121,39.381,143.182,39.381C144.242,39.381,145.303,38.803,146.364,38.803C147.424,38.803,148.485,39.073,149.545,39.073C150.606,39.073,151.667,38.031,152.727,38.031C153.788,38.031,154.848,38.134,155.909,38.134C156.97,38.134,158.03,37.669,159.091,37.479C160.152,37.288,161.212,37.127,162.273,36.99C163.333,36.853,164.394,36.656,165.455,36.656C166.515,36.656,167.576,37.273,168.636,37.273C169.697,37.273,170.758,36.99,171.818,36.99C172.879,36.99,173.939,38.109,175,38.109C176.061,38.109,177.121,37.311,178.182,37.311C179.242,37.311,180.303,37.474,181.364,37.543C182.424,37.611,183.485,37.723,184.545,37.723C185.606,37.723,186.667,37.427,187.727,37.427C188.788,37.427,189.848,37.624,190.909,37.71C191.97,37.796,193.03,37.941,194.091,37.941C195.152,37.941,196.212,37.787,197.273,37.787C198.333,37.787,199.394,37.806,200.455,37.813C201.515,37.819,202.576,37.826,203.636,37.826C204.697,37.826,205.758,37.294,206.818,37.08C207.879,36.866,208.939,36.776,210,36.54C211.061,36.304,212.121,35.837,213.182,35.666C214.242,35.494,215.303,35.526,216.364,35.409C217.424,35.291,218.485,34.959,219.545,34.959C220.606,34.959,221.667,36.15,222.727,36.167C223.788,36.184,224.848,36.193,225.909,36.193C226.97,36.193,228.03,36.026,229.091,35.974C230.152,35.923,231.212,35.944,232.273,35.884C233.333,35.824,234.394,35.323,235.455,35.01C236.515,34.697,237.576,34.059,238.636,34.007C239.697,33.956,240.758,33.981,241.818,33.93C242.879,33.879,243.939,32.889,245,32.863C246.061,32.837,247.121,32.85,248.182,32.824C249.242,32.799,250.303,32.661,251.364,32.336C252.424,32.01,253.485,30.793,254.545,30.536C255.606,30.279,256.667,30.381,257.727,30.15C258.788,29.919,259.848,29.164,260.909,29.147C261.97,29.13,263.03,29.139,264.091,29.121C265.152,29.104,266.212,27.362,267.273,26.679C268.333,25.995,269.394,25.749,270.455,25.02C271.515,24.291,272.576,22.971,273.636,22.307C274.697,21.643,275.758,21.461,276.818,21.034C277.879,20.608,278.939,20.181,280,19.749C281.061,19.316,282.121,18.437,283.182,18.437C284.242,18.437,285.303,18.604,286.364,18.604C287.424,18.604,288.485,17.576,289.545,16.869C290.606,16.161,291.667,15.264,292.727,14.361C293.788,13.459,294.848,12.51,295.909,11.456C296.97,10.401,298.03,8.97,299.091,8.036C300.152,7.101,301.212,6.426,302.273,5.85C303.333,5.274,304.394,4.978,305.455,4.577C306.515,4.176,307.576,3.446,308.636,3.446C309.697,3.446,310.758,3.844,311.818,4.217C312.879,4.59,313.939,4.706,315,5.683C316.061,6.66,317.121,9.581,318.182,11.211C319.242,12.842,320.303,14.04,321.364,15.467C322.424,16.894,323.485,16.903,324.545,19.774C325.606,22.646,326.667,30.249,327.727,37.851L327.727,45C326.667,45,325.606,45,324.545,45C323.485,45,322.424,45,321.364,45C320.303,45,319.242,45,318.182,45C317.121,45,316.061,45,315,45C313.939,45,312.879,45,311.818,45C310.758,45,309.697,45,308.636,45C307.576,45,306.515,45,305.455,45C304.394,45,303.333,45,302.273,45C301.212,45,300.152,45,299.091,45C298.03,45,296.97,45,295.909,45C294.848,45,293.788,45,292.727,45C291.667,45,290.606,45,289.545,45C288.485,45,287.424,45,286.364,45C285.303,45,284.242,45,283.182,45C282.121,45,281.061,45,280,45C278.939,45,277.879,45,276.818,45C275.758,45,274.697,45,273.636,45C272.576,45,271.515,45,270.455,45C269.394,45,268.333,45,267.273,45C266.212,45,265.152,45,264.091,45C263.03,45,261.97,45,260.909,45C259.848,45,258.788,45,257.727,45C256.667,45,255.606,45,254.545,45C253.485,45,252.424,45,251.364,45C250.303,45,249.242,45,248.182,45C247.121,45,246.061,45,245,45C243.939,45,242.879,45,241.818,45C240.758,45,239.697,45,238.636,45C237.576,45,236.515,45,235.455,45C234.394,45,233.333,45,232.273,45C231.212,45,230.152,45,229.091,45C228.03,45,226.97,45,225.909,45C224.848,45,223.788,45,222.727,45C221.667,45,220.606,45,219.545,45C218.485,45,217.424,45,216.364,45C215.303,45,214.242,45,213.182,45C212.121,45,211.061,45,210,45C208.939,45,207.879,45,206.818,45C205.758,45,204.697,45,203.636,45C202.576,45,201.515,45,200.455,45C199.394,45,198.333,45,197.273,45C196.212,45,195.152,45,194.091,45C193.03,45,191.97,45,190.909,45C189.848,45,188.788,45,187.727,45C186.667,45,185.606,45,184.545,45C183.485,45,182.424,45,181.364,45C180.303,45,179.242,45,178.182,45C177.121,45,176.061,45,175,45C173.939,45,172.879,45,171.818,45C170.758,45,169.697,45,168.636,45C167.576,45,166.515,45,165.455,45C164.394,45,163.333,45,162.273,45C161.212,45,160.152,45,159.091,45C158.03,45,156.97,45,155.909,45C154.848,45,153.788,45,152.727,45C151.667,45,150.606,45,149.545,45C148.485,45,147.424,45,146.364,45C145.303,45,144.242,45,143.182,45C142.121,45,141.061,45,140,45C138.939,45,137.879,45,136.818,45C135.758,45,134.697,45,133.636,45C132.576,45,131.515,45,130.455,45C129.394,45,128.333,45,127.273,45C126.212,45,125.152,45,124.091,45C123.03,45,121.97,45,120.909,45C119.848,45,118.788,45,117.727,45C116.667,45,115.606,45,114.545,45C113.485,45,112.424,45,111.364,45C110.303,45,109.242,45,108.182,45C107.121,45,106.061,45,105,45C103.939,45,102.879,45,101.818,45C100.758,45,99.697,45,98.636,45C97.576,45,96.515,45,95.455,45C94.394,45,93.333,45,92.273,45C91.212,45,90.152,45,89.091,45C88.03,45,86.97,45,85.909,45C84.848,45,83.788,45,82.727,45C81.667,45,80.606,45,79.545,45C78.485,45,77.424,45,76.364,45C75.303,45,74.242,45,73.182,45C72.121,45,71.061,45,70,45C68.939,45,67.879,45,66.818,45C65.758,45,64.697,45,63.636,45C62.576,45,61.515,45,60.455,45C59.394,45,58.333,45,57.273,45C56.212,45,55.152,45,54.091,45C53.03,45,51.97,45,50.909,45C49.848,45,48.788,45,47.727,45C46.667,45,45.606,45,44.545,45C43.485,45,42.424,45,41.364,45C40.303,45,39.242,45,38.182,45C37.121,45,36.061,45,35,45C33.939,45,32.879,45,31.818,45C30.758,45,29.697,45,28.636,45C27.576,45,26.515,45,25.455,45C24.394,45,23.333,45,22.273,45C21.212,45,20.152,45,19.091,45C18.03,45,16.97,45,15.909,45C14.848,45,13.788,45,12.727,45C11.667,45,10.606,45,9.545,45C8.485,45,7.424,45,6.364,45C5.303,45,4.242,45,3.182,45C2.121,45,1.061,45,0,45Z" fill="#eeca3b" fill-opacity="0.8" stroke="#333" stroke-width="0.5"/></g></g><path class="foreground" aria-hidden="true" d="" display="none"/></g></g></g><path class="foreground" aria-hidden="true" d="" display="none"/></g></g><g class="mark-group role-title"><g transform="translate(-48.5615234375,-18.199999999999996)"><path class="background" aria-hidden="true" d="M0,0h0v0h0Z" pointer-events="none"/><g><g class="mark-text role-title-text" role="graphics-symbol" aria-roledescription="title" aria-label="Title text 'Release Year Dist.'" pointer-events="none"><text text-anchor="start" transform="translate(0,10)" font-family="sans-serif" font-size="13px" font-weight="bold" fill="#000" opacity="1">Release Year Dist.</text></g></g><path class="foreground" aria-hidden="true" d="" pointer-events="none" display="none"/></g></g></g><path class="foreground" aria-hidden="true" d="" display="none"/></g></g></g></svg>