<svg xmlns="http://www.w3.org/2000/svg" xmlns:xlink="http://www.w3.org/1999/xlink" version="1.1" class="marks" width="439" height="287" viewBox="0 0 439 287"><rect width="439" height="287" fill="white"/><g fill="none" stroke-miterlimit="10" transform="translate(65,27)"><g class="mark-group role-frame root" role="graphics-object" aria-roledescription="group mark container"><g transform="translate(0,0)"><path class="background" aria-hidden="true" d="M0.5,0.5h300v250h-300Z" stroke="#ddd"/><g><g class="mark-group role-axis" aria-hidden="true"><g transform="translate(0.5,0.5)"><path class="background" aria-hidden="true" d="M0,0h0v0h0Z" pointer-events="none"/><g><g class="mark-rule role-axis-grid" pointer-events="none"><line transform="translate(0,250)" x2="300" y2="0" stroke="#ddd" stroke-width="1" opacity="1"/><line transform="translate(0,194)" x2="300" y2="0" stroke="#ddd" stroke-width="1" opacity="1"/><line transform="translate(0,139)" x2="300" y2="0" stroke="#ddd" stroke-width="1" opacity="1"/><line transform="translate(0,83)" x2="300" y2="0" stroke="#ddd" stroke-width="1" opacity="1"/><line transform="translate(0,28)" x2="300" y2="0" stroke="#ddd" stroke-width="1" opacity="1"/></g></g><path class="foreground" aria-hidden="true" d="" pointer-events="none" display="none"/></g></g><g class="mark-group role-axis" role="graphics-symbol" aria-roledescription="axis" aria-label="Y-axis titled 'Total Movies' for a linear scale with values from 0.0 to 90k"><g transform="translate(0.5,0.5)"><path class="background" aria-hidden="true" d="M0,0h0v0h0Z" pointer-events="none"/><g><g class="mark-rule role-axis-tick" pointer-events="none"><line transform="translate(0,250)" x2="-5" y2="0" stroke="#888" stroke-width="1" opacity="1"/><line transform="translate(0,194)" x2="-5" y2="0" stroke="#888" stroke-width="1" opacity="1"/><line transform="translate(0,139)" x2="-5" y2="0" stroke="#888" stroke-width="1" opacity="1"/><line transform="translate(0,83)" x2="-5" y2="0" stroke="#888" stroke-width="1" opacity="1"/><line transform="translate(0,28)" x2="-5" y2="0" stroke="#888" stroke-width="1" opacity="1"/></g><g class="mark-text role-axis-label" pointer-events="none"><text text-anchor="end" transform="translate(-7,253)" font-family="sans-serif" font-size="10px" fill="#000" opacity="1">0.0</text><text text-anchor="end" transform="translate(-7,197.44444444444446)" font-family="sans-serif" font-size="10px" fill="#000" opacity="1">20k</text><text text-anchor="end" transform="translate(-7,141.88888888888889)" font-family="sans-serif" font-size="10px" fill="#000" opacity="1">40k</text><text text-anchor="end" transform="translate(-7,86.33333333333334)" font-family="sans-serif" font-size="10px" fill="#000" opacity="1">60k</text><text text-anchor="end" transform="translate(-7,30.77777777777779)" font-family="sans-serif" font-size="10px" fill="#000" opacity="1">80k</text></g><g class="mark-rule role-axis-domain" pointer-events="none"><line transform="translate(0,250)" x2="0" y2="-250" stroke="#888" stroke-width="1" opacity="1"/></g><g class="mark-text role-axis-title" pointer-events="none"><text text-anchor="middle" transform="translate(-48.123046875,125) rotate(-90) translate(0,-2)" font-family="sans-serif" font-size="11px" font-weight="bold" fill="#4682b4" opacity="1">Total Movies</text></g></g><path class="foreground" aria-hidden="true" d="" pointer-events="none" display="none"/></g></g><g class="mark-group role-axis" role="graphics-symbol" aria-roledescription="axis" aria-label="Y-axis titled 'Total Ratings (Log Scale)' for a log scale with values from 100k to 100M"><g transform="translate(300.5,0.5)"><path class="background" aria-hidden="true" d="M0,0h0v0h0Z" pointer-events="none"/><g><g class="mark-rule role-axis-tick" pointer-events="none"><line transform="translate(0,250)" x2="5" y2="0" stroke="#888" stroke-width="1" opacity="1"/><line transform="translate(0,225)" x2="5" y2="0" stroke="#888" stroke-width="1" opacity="1"/><line transform="translate(0,210)" x2="5" y2="0" stroke="#888" stroke-width="1" opacity="1"/><line transform="translate(0,200)" x2="5" y2="0" stroke="#888" stroke-width="1" opacity="1"/><line transform="translate(0,192)" x2="5" y2="0" stroke="#888" stroke-width="1" opacity="1"/><line transform="translate(0,185)" x2="5" y2="0" stroke="#888" stroke-width="1" opacity="1"/><line transform="translate(0,180)" x2="5" y2="0" stroke="#888" stroke-width="1" opacity="1"/><line transform="translate(0,175)" x2="5" y2="0" stroke="#888" stroke-width="1" opacity="1"/><line transform="translate(0,170)" x2="5" y2="0" stroke="#888" stroke-width="1" opacity="1"/><line transform="translate(0,167)" x2="5" y2="0" stroke="#888" stroke-width="1" opacity="1"/><line transform="translate(0,142)" x2="5" y2="0" stroke="#888" stroke-width="1" opacity="1"/><line transform="translate(0,127)" x2="5" y2="0" stroke="#888" stroke-width="1" opacity="1"/><line transform="translate(0,116)" x2="5" y2="0" stroke="#888" stroke-width="1" opacity="1"/><line transform="translate(0,108)" x2="5" y2="0" stroke="#888" stroke-width="1" opacity="1"/><line transform="translate(0,102)" x2="5" y2="0" stroke="#888" stroke-width="1" opacity="1"/><line transform="translate(0,96)" x2="5" y2="0" stroke="#888" stroke-width="1" opacity="1"/><line transform="translate(0,91)" x2="5" y2="0" stroke="#888" stroke-width="1" opacity="1"/><line transform="translate(0,87)" x2="5" y2="0" stroke="#888" stroke-width="1" opacity="1"/><line transform="translate(0,83)" x2="5" y2="0" stroke="#888" stroke-width="1" opacity="1"/><line transform="translate(0,58)" x2="5" y2="0" stroke="#888" stroke-width="1" opacity="1"/><line transform="translate(0,44)" x2="5" y2="0" stroke="#888" stroke-width="1" opacity="1"/><line transform="translate(0,33)" x2="5" y2="0" stroke="#888" stroke-width="1" opacity="1"/><line transform="translate(0,25)" x2="5" y2="0" stroke="#888" stroke-width="1" opacity="1"/><line transform="translate(0,18)" x2="5" y2="0" stroke="#888" stroke-width="1" opacity="1"/><line transform="translate(0,13)" x2="5" y2="0" stroke="#888" stroke-width="1" opacity="1"/><line transform="translate(0,8)" x2="5" y2="0" stroke="#888" stroke-width="1" opacity="1"/><line transform="translate(0,4)" x2="5" y2="0" stroke="#888" stroke-width="1" opacity="1"/><line transform="translate(0,0)" x2="5" y2="0" stroke="#888" stroke-width="1" opacity="1"/></g><g class="mark-text role-axis-label" pointer-events="none"><text text-anchor="start" transform="translate(7,253)" font-family="sans-serif" font-size="10px" fill="#000" opacity="1">100k</text><text text-anchor="start" transform="translate(7,227.91416702800157)" font-family="sans-serif" font-size="10px" fill="#000" opacity="1">200k</text><text text-anchor="start" transform="translate(7,213.23989544002816)" font-family="sans-serif" font-size="10px" fill="#000" opacity="1"/><text text-anchor="start" transform="translate(7,202.82833405600314)" font-family="sans-serif" font-size="10px" fill="#000" opacity="1"/><text text-anchor="start" transform="translate(7,194.75249963866514)" font-family="sans-serif" font-size="10px" fill="#000" opacity="1"/><text text-anchor="start" transform="translate(7,188.15406246802974)" font-family="sans-serif" font-size="10px" fill="#000" opacity="1"/><text text-anchor="start" transform="translate(7,182.57516333214528)" font-family="sans-serif" font-size="10px" fill="#000" opacity="1"/><text text-anchor="start" transform="translate(7,177.74250108400472)" font-family="sans-serif" font-size="10px" fill="#000" opacity="1"/><text text-anchor="start" transform="translate(7,173.47979088005627)" font-family="sans-serif" font-size="10px" fill="#000" opacity="1"/><text text-anchor="start" transform="translate(7,169.6666666666667)" font-family="sans-serif" font-size="10px" fill="#000" opacity="1">1.0M</text><text text-anchor="start" transform="translate(7,144.58083369466829)" font-family="sans-serif" font-size="10px" fill="#000" opacity="1">2.0M</text><text text-anchor="start" transform="translate(7,129.90656210669482)" font-family="sans-serif" font-size="10px" fill="#000" opacity="1"/><text text-anchor="start" transform="translate(7,119.49500072266986)" font-family="sans-serif" font-size="10px" fill="#000" opacity="1"/><text text-anchor="start" transform="translate(7,111.4191663053318)" font-family="sans-serif" font-size="10px" fill="#000" opacity="1"/><text text-anchor="start" transform="translate(7,104.82072913469636)" font-family="sans-serif" font-size="10px" fill="#000" opacity="1"/><text text-anchor="start" transform="translate(7,99.24182999881198)" font-family="sans-serif" font-size="10px" fill="#000" opacity="1"/><text text-anchor="start" transform="translate(7,94.40916775067143)" font-family="sans-serif" font-size="10px" fill="#000" opacity="1"/><text text-anchor="start" transform="translate(7,90.14645754672304)" font-family="sans-serif" font-size="10px" fill="#000" opacity="1"/><text text-anchor="start" transform="translate(7,86.33333333333334)" font-family="sans-serif" font-size="10px" fill="#000" opacity="1">10M</text><text text-anchor="start" transform="translate(7,61.247500361335)" font-family="sans-serif" font-size="10px" fill="#000" opacity="1">20M</text><text text-anchor="start" transform="translate(7,46.57322877336159)" font-family="sans-serif" font-size="10px" fill="#000" opacity="1"/><text text-anchor="start" transform="translate(7,36.161667389336486)" font-family="sans-serif" font-size="10px" fill="#000" opacity="1"/><text text-anchor="start" transform="translate(7,28.085832971998485)" font-family="sans-serif" font-size="10px" fill="#000" opacity="1"/><text text-anchor="start" transform="translate(7,21.48739580136308)" font-family="sans-serif" font-size="10px" fill="#000" opacity="1"/><text text-anchor="start" transform="translate(7,15.908496665478692)" font-family="sans-serif" font-size="10px" fill="#000" opacity="1"/><text text-anchor="start" transform="translate(7,11.07583441733814)" font-family="sans-serif" font-size="10px" fill="#000" opacity="1"/><text text-anchor="start" transform="translate(7,6.813124213389668)" font-family="sans-serif" font-size="10px" fill="#000" opacity="1"/><text text-anchor="start" transform="translate(7,3)" font-family="sans-serif" font-size="10px" fill="#000" opacity="1">100M</text></g><g class="mark-rule role-axis-domain" pointer-events="none"><line transform="translate(0,250)" x2="0" y2="-250" stroke="#888" stroke-width="1" opacity="1"/></g><g class="mark-text role-axis-title" pointer-events="none"><text text-anchor="middle" transform="translate(57.0146484375,125) rotate(90) translate(0,-2)" font-family="sans-serif" font-size="11px" font-weight="bold" fill="#ff7f0e" opacity="1">Total Ratings (Log Scale)</text></g></g><path class="foreground" aria-hidden="true" d="" pointer-events="none" display="none"/></g></g><g class="mark-group role-scope" role="graphics-object" aria-roledescription="group mark container"><g transform="translate(2.5,245.32777777777778)"><path class="background" aria-hidden="true" d="M2.3361111111111086,0L42.66388888888889,0C43.95322370999848,0,45,1.0467762900015156,45,2.3361111111111086L45,4.672222222222217C45,4.672222222222217,45,4.672222222222217,45,4.672222222222217L0,4.672222222222217C0,4.672222222222217,0,4.672222222222217,0,4.672222222222217L0,2.3361111111111086C0,1.0467762900015156,1.0467762900015156,0,2.3361111111111086,0Z"/><g clip-path="url(#clip109)"><g class="mark-group role-scope" role="graphics-object" aria-roledescription="group mark container"><g transform="translate(0,-245.32777777777778)"><path class="background" aria-hidden="true" d="M0,0h45v0h-45Z"/><g><g class="mark-rect role-mark layer_0_marks" role="graphics-object" aria-roledescription="rect mark container"><path aria-label="Dataset: ml-100k; Total Movies: 1.7k; Movies: 1682" role="graphics-symbol" aria-roledescription="bar" d="M0,245.32777777777778h45v4.672222222222217h-45Z" fill="#A9D0F5"/></g></g><path class="foreground" aria-hidden="true" d="" display="none"/></g></g></g><path class="foreground" aria-hidden="true" d="" display="none"/></g><g transform="translate(52.5,239.2138888888889)"><path class="background" aria-hidden="true" d="M5,0L40,0C42.75957512247,0,45,2.24042487753,45,5L45,10.786111111111097C45,10.786111111111097,45,10.786111111111097,45,10.786111111111097L0,10.786111111111097C0,10.786111111111097,0,10.786111111111097,0,10.786111111111097L0,5C0,2.24042487753,2.24042487753,0,5,0Z"/><g clip-path="url(#clip110)"><g class="mark-group role-scope" role="graphics-object" aria-roledescription="group mark container"><g transform="translate(0,-239.2138888888889)"><path class="background" aria-hidden="true" d="M0,0h45v0h-45Z"/><g><g class="mark-rect role-mark layer_0_marks" role="graphics-object" aria-roledescription="rect mark container"><path aria-label="Dataset: ml-1m; Total Movies: 3.9k; Movies: 3883" role="graphics-symbol" aria-roledescription="bar" d="M0,239.2138888888889h45v10.786111111111097h-45Z" fill="#A9D0F5"/></g></g><path class="foreground" aria-hidden="true" d="" display="none"/></g></g></g><path class="foreground" aria-hidden="true" d="" display="none"/></g><g transform="translate(152.5,174.22777777777776)"><path class="background" aria-hidden="true" d="M5,0L40,0C42.75957512247,0,45,2.24042487753,45,5L45,75.77222222222224C45,75.77222222222224,45,75.77222222222224,45,75.77222222222224L0,75.77222222222224C0,75.77222222222224,0,75.77222222222224,0,75.77222222222224L0,5C0,2.24042487753,2.24042487753,0,5,0Z"/><g clip-path="url(#clip111)"><g class="mark-group role-scope" role="graphics-object" aria-roledescription="group mark container"><g transform="translate(0,-174.22777777777776)"><path class="background" aria-hidden="true" d="M0,0h45v0h-45Z"/><g><g class="mark-rect role-mark layer_0_marks" role="graphics-object" aria-roledescription="rect mark container"><path aria-label="Dataset: ml-20m; Total Movies: 27k; Movies: 27278" role="graphics-symbol" aria-roledescription="bar" d="M0,174.22777777777776h45v75.77222222222224h-45Z" fill="#A9D0F5"/></g></g><path class="foreground" aria-hidden="true" d="" display="none"/></g></g></g><path class="foreground" aria-hidden="true" d="" display="none"/></g><g transform="translate(102.5,220.33055555555555)"><path class="background" aria-hidden="true" d="M5,0L40,0C42.75957512247,0,45,2.24042487753,45,5L45,29.66944444444445C45,29.66944444444445,45,29.66944444444445,45,29.66944444444445L0,29.66944444444445C0,29.66944444444445,0,29.66944444444445,0,29.66944444444445L0,5C0,2.24042487753,2.24042487753,0,5,0Z"/><g clip-path="url(#clip112)"><g class="mark-group role-scope" role="graphics-object" aria-roledescription="group mark container"><g transform="translate(0,-220.33055555555555)"><path class="background" aria-hidden="true" d="M0,0h45v0h-45Z"/><g><g class="mark-rect role-mark layer_0_marks" role="graphics-object" aria-roledescription="rect mark container"><path aria-label="Dataset: ml-10m; Total Movies: 11k; Movies: 10681" role="graphics-symbol" aria-roledescription="bar" d="M0,220.33055555555555h45v29.66944444444445h-45Z" fill="#A9D0F5"/></g></g><path class="foreground" aria-hidden="true" d="" display="none"/></g></g></g><path class="foreground" aria-hidden="true" d="" display="none"/></g><g transform="translate(202.5,76.60277777777777)"><path class="background" aria-hidden="true" d="M5,0L40,0C42.75957512247,0,45,2.24042487753,45,5L45,173.39722222222224C45,173.39722222222224,45,173.39722222222224,45,173.39722222222224L0,173.39722222222224C0,173.39722222222224,0,173.39722222222224,0,173.39722222222224L0,5C0,2.24042487753,2.24042487753,0,5,0Z"/><g clip-path="url(#clip113)"><g class="mark-group role-scope" role="graphics-object" aria-roledescription="group mark container"><g transform="translate(0,-76.60277777777777)"><path class="background" aria-hidden="true" d="M0,0h45v0h-45Z"/><g><g class="mark-rect role-mark layer_0_marks" role="graphics-object" aria-roledescription="rect mark container"><path aria-label="Dataset: ml-25m; Total Movies: 62k; Movies: 62423" role="graphics-symbol" aria-roledescription="bar" d="M0,76.60277777777777h45v173.39722222222224h-45Z" fill="#A9D0F5"/></g></g><path class="foreground" aria-hidden="true" d="" display="none"/></g></g></g><path class="foreground" aria-hidden="true" d="" display="none"/></g><g transform="translate(252.5,9.619444444444458)"><path class="background" aria-hidden="true" d="M5,0L40,0C42.75957512247,0,45,2.24042487753,45,5L45,240.38055555555553C45,240.38055555555553,45,240.38055555555553,45,240.38055555555553L0,240.38055555555553C0,240.38055555555553,0,240.38055555555553,0,240.38055555555553L0,5C0,2.24042487753,2.24042487753,0,5,0Z"/><g clip-path="url(#clip114)"><g class="mark-group role-scope" role="graphics-object" aria-roledescription="group mark container"><g transform="translate(0,-9.619444444444458)"><path class="background" aria-hidden="true" d="M0,0h45v0h-45Z"/><g><g class="mark-rect role-mark layer_0_marks" role="graphics-object" aria-roledescription="rect mark container"><path aria-label="Dataset: ml-latest; Total Movies: 87k; Movies: 86537" role="graphics-symbol" aria-roledescription="bar" d="M0,9.619444444444458h45v240.38055555555553h-45Z" fill="#A9D0F5"/></g></g><path class="foreground" aria-hidden="true" d="" display="none"/></g></g></g><path class="foreground" aria-hidden="true" d="" display="none"/></g></g><g class="mark-line role-mark layer_1_marks" role="graphics-object" aria-roledescription="line mark container"><path aria-label="Dataset: ml-100k; Total Ratings (Log Scale): 100k; Ratings: 100000" role="graphics-symbol" aria-roledescription="line mark" d="M25,250L75,166.659L125,83.333L175,58.247L225,50.172L275,39.223" stroke="#ff7f0e" stroke-width="4"/></g><g class="mark-symbol role-mark layer_2_marks" role="graphics-object" aria-roledescription="symbol mark container"><path aria-label="Dataset: ml-100k; Ratings: 100000; Movies: 1682" role="graphics-symbol" aria-roledescription="circle" transform="translate(25,250)" d="M5,0A5,5,0,1,1,-5,0A5,5,0,1,1,5,0" fill="#ff7f0e" stroke-width="2" opacity="0.7"/><path aria-label="Dataset: ml-1m; Ratings: 1000209; Movies: 3883" role="graphics-symbol" aria-roledescription="circle" transform="translate(75,166.65910349476414)" d="M5,0A5,5,0,1,1,-5,0A5,5,0,1,1,5,0" fill="#ff7f0e" stroke-width="2" opacity="0.7"/><path aria-label="Dataset: ml-20m; Ratings: 20000263; Movies: 27278" role="graphics-symbol" aria-roledescription="circle" transform="translate(175,58.24702445009425)" d="M5,0A5,5,0,1,1,-5,0A5,5,0,1,1,5,0" fill="#ff7f0e" stroke-width="2" opacity="0.7"/><path aria-label="Dataset: ml-10m; Ratings: 10000054; Movies: 10681" role="graphics-symbol" aria-roledescription="circle" transform="translate(125,83.3331379013442)" d="M5,0A5,5,0,1,1,-5,0A5,5,0,1,1,5,0" fill="#ff7f0e" stroke-width="2" opacity="0.7"/><path aria-label="Dataset: ml-25m; Ratings: 25000095; Movies: 62423" role="graphics-symbol" aria-roledescription="circle" transform="translate(225,50.17152841767225)" d="M5,0A5,5,0,1,1,-5,0A5,5,0,1,1,5,0" fill="#ff7f0e" stroke-width="2" opacity="0.7"/><path aria-label="Dataset: ml-latest; Ratings: 33832162; Movies: 86537" role="graphics-symbol" aria-roledescription="circle" transform="translate(275,39.222520692098804)" d="M5,0A5,5,0,1,1,-5,0A5,5,0,1,1,5,0" fill="#ff7f0e" stroke-width="2" opacity="0.7"/></g><g class="mark-group role-title"><g transform="translate(150,-22)"><path class="background" aria-hidden="true" d="M0,0h0v0h0Z" pointer-events="none"/><g><g class="mark-text role-title-text" role="graphics-symbol" aria-roledescription="title" aria-label="Title text 'Size Evolution'" pointer-events="none"><text text-anchor="middle" transform="translate(0,10)" font-family="sans-serif" font-size="13px" font-weight="bold" fill="#000" opacity="1">Size Evolution</text></g></g><path class="foreground" aria-hidden="true" d="" pointer-events="none" display="none"/></g></g></g><path class="foreground" aria-hidden="true" d="" display="none"/></g></g></g><defs><clipPath id="clip109"><path d="M2.3361111111111086,0L42.66388888888889,0C43.95322370999848,0,45,1.0467762900015156,45,2.3361111111111086L45,4.672222222222217C45,4.672222222222217,45,4.672222222222217,45,4.672222222222217L0,4.672222222222217C0,4.672222222222217,0,4.672222222222217,0,4.672222222222217L0,2.3361111111111086C0,1.0467762900015156,1.0467762900015156,0,2.3361111111111086,0Z"/></clipPath><clipPath id="clip110"><path d="M5,0L40,0C42.75957512247,0,45,2.24042487753,45,5L45,10.786111111111097C45,10.786111111111097,45,10.786111111111097,45,10.786111111111097L0,10.786111111111097C0,10.786111111111097,0,10.786111111111097,0,10.786111111111097L0,5C0,2.24042487753,2.24042487753,0,5,0Z"/></clipPath><clipPath id="clip111"><path d="M5,0L40,0C42.75957512247,0,45,2.24042487753,45,5L45,75.77222222222224C45,75.77222222222224,45,75.77222222222224,45,75.77222222222224L0,75.77222222222224C0,75.77222222222224,0,75.77222222222224,0,75.77222222222224L0,5C0,2.24042487753,2.24042487753,0,5,0Z"/></clipPath><clipPath id="clip112"><path d="M5,0L40,0C42.75957512247,0,45,2.24042487753,45,5L45,29.66944444444445C45,29.66944444444445,45,29.66944444444445,45,29.66944444444445L0,29.66944444444445C0,29.66944444444445,0,29.66944444444445,0,29.66944444444445L0,5C0,2.24042487753,2.24042487753,0,5,0Z"/></clipPath><clipPath id="clip113"><path d="M5,0L40,0C42.75957512247,0,45,2.24042487753,45,5L45,173.39722222222224C45,173.39722222222224,45,173.39722222222224,45,173.39722222222224L0,173.39722222222224C0,173.39722222222224,0,173.39722222222224,0,173.39722222222224L0,5C0,2.24042487753,2.24042487753,0,5,0Z"/></clipPath><clipPath id="clip114"><path d="M5,0L40,0C42.75957512247,0,45,2.24042487753,45,5L45,240.38055555555553C45,240.38055555555553,45,240.38055555555553,45,240.38055555555553L0,240.38055555555553C0,240.38055555555553,0,240.38055555555553,0,240.38055555555553L0,5C0,2.24042487753,2.24042487753,0,5,0Z"/></clipPath></defs></svg>